<?xml version="1.0" encoding="UTF-8" standalone="no"?>
<!-- Created with Inkscape (http://www.inkscape.org/) -->

<svg
   xmlns:svg="http://www.w3.org/2000/svg"
   xmlns="http://www.w3.org/2000/svg"
   version="1.1"
   width="210mm"
   height="297mm"
   viewBox="0 0 210 297"
   id="svg8">
  <defs
     id="defs2" />
  <g
     id="layer1">
    <g
       transform="translate(7.7710762e-5,94.187894)"
       id="g21" />
    <path
       d="m 103.62218,122.27827 0.69655,1.24048 0.85653,0.44029 c 0.29051,0.29052 2.63668,0.44758 7.39663,0.49515 9.30315,0.093 13.41457,0.36509 18.40821,1.21836 5.37189,0.9179 7.04745,1.34498 13.43398,3.42418 2.89557,0.94268 5.75483,1.7993 6.35391,1.9036 0.59909,0.1043 1.34758,0.41516 1.66331,0.6908 1.01681,0.88769 5.54579,2.21387 11.63817,3.40788 7.09989,1.39147 9.60424,2.41431 10.05202,4.1055 0.16828,0.63556 0.1701,1.21002 0.004,1.27659 -0.16604,0.0666 -0.3019,0.37161 -0.3019,0.67788 0,0.52348 -2.64426,3.37652 -3.12944,3.37652 -0.12318,0 -0.81738,0.49584 -1.54267,1.10187 -1.63738,1.36813 -1.5931,1.33592 -4.16672,3.03097 -2.05474,1.35329 -2.75756,1.01059 -2.75756,1.01059 l -1.51696,0.80678 -1.41205,0.77021 c 0,0 -0.95844,0.28824 -1.29258,0.49691 -0.44849,0.28009 -2.16546,0.30914 -2.16546,0.30914 l -2.14643,0.25973 c -0.67668,0.32268 -2.13504,0.8655 -2.37788,0.87329 -0.49406,0.0159 -2.15971,0.97556 -2.15971,0.97556 -1.04652,0.88209 -1.77468,1.16868 -2.65593,1.82222 -1.34557,0.77678 -5.20206,1.83966 -5.22192,1.52166 -3.4838,1.03369 -9.94522,0.47405 -9.94522,0.47405 h -2.75992 c -1.57908,-0.20036 -3.42113,-0.47757 -4.92379,-0.53855 -0.77346,-0.0314 -1.9786,-0.55325 -3.28597,-0.79262 0,0 -4.96781,-0.89655 -5.60447,-1.61759 l -1.6045,-1.9718 -1.38513,1.53363 c -0.77225,0.85503 -1.84339,3.17036 -1.84339,3.17036 -0.25205,0.9002 0,0 -0.78614,1.43409 -0.62637,0.86427 -0.58834,0.7402 -1.35145,1.53199 -0.9077,0.8223 -1.47536,1.15459 -1.72464,1.36692 -0.8491,0.72323 -2.02476,1.34464 -2.02476,1.34464 -1.33997,0.75431 -3.54003,1.54309 -4.609269,1.37766 -1.022496,-0.99155 -1.310991,-2.36775 -1.310991,-2.36775 l -0.528437,-1.21075 c -0.547845,-2.00206 -0.541212,-1.48755 -1.011913,-3.07292 v 0 c 0,0 -0.734344,-0.64961 -1.593841,-3.58978 0,0 -0.680786,-1.5474 -0.731816,-2.74956 l -0.183777,-2.66037 -0.11582,-1.65394 c -0.66419,-0.2264 2.126384,-0.88121 -6.179446,0.13601 -7.02891,0.86083 -10.57103,1.68523 -11.51815,2.55296 -2.16568,1.98413 -3.73219,3.17424 -9.64412,6.30581 -0.29186,0.1546 -1.19387,0.33328 -1.91911,0.74062 -2.52502,1.37531 -6.16542,2.38599 -8.50664,1.68883 -0.17766,-0.0567 -2.41587,-1.58303 -1.9294,-1.49482 0,0 -0.32083,0.0443 -1.49141,-1.16156 0,0 -1.91396,-1.66229 -2.4156,-3.55202 -2.62845,-3.69201 -2.24355,-3.29569 -3.46757,-9.23981 0.83689,-6.23402 0.75609,-7.43557 4.53848,-14.25584 0,0 0.15635,-0.18716 1.60244,-2.40966 0.73504,-1.38856 4.8662,-1.17308 4.8662,-1.17308 0.63722,-0.002 1.24572,0.1367 1.3522,0.309 0.10649,0.1723 0.97391,0.52325 1.9276,0.77989 0.9537,0.25663 2.55092,0.82904 3.54939,1.27202 0.99847,0.44298 2.73801,1.16617 3.86563,1.60709 1.12762,0.44092 2.89994,1.52699 3.93848,2.41347 l 1.88827,1.24872 2.77851,-0.19965 c 1.52818,-0.10981 3.79699,-0.43581 5.04181,-0.72445 2.18722,-0.50714 1.24327,-0.7281 0.88128,-2.21467 -0.0576,-0.79851 -0.48138,-3.81896 0.14111,-4.59321 2.97288,-9.86922 7.2444,-10.28087 7.87178,-10.44204 3.13317,-0.63057 3.49349,-0.69601 6.62417,0.80496 0.77157,0.57572 1.49874,1.36202 2.86084,2.7898 m 66.32294,22.96869 c 0,0 -0.0751,-1.31937 -1.10177,-1.31937 -0.75307,0 -1.11414,0.0673 -1.20905,1.05164 -0.0931,0.96506 0.65644,1.2442 1.23277,1.2442 0.38759,0 0.83741,-0.68652 1.07805,-0.97647 z"
       id="path46"
       style="fill:#000000;stroke-width:0.36308068" />
  </g>
</svg>
