<?xml version="1.0" encoding="UTF-8" standalone="no"?>
<!-- Created with Inkscape (http://www.inkscape.org/) -->

<svg
   xmlns:svg="http://www.w3.org/2000/svg"
   xmlns="http://www.w3.org/2000/svg"
   version="1.1"
   width="210mm"
   height="297mm"
   viewBox="0 0 210 297"
   id="svg4504">
  <defs
     id="defs4498" />
  <g
     id="layer1">
    <path
       d="m 117.44778,161.75852 c -0.0699,-0.0395 -0.19843,-0.15802 -0.28575,-0.26336 -0.0873,-0.10534 -0.24128,-0.26503 -0.34217,-0.35487 -0.5601,-0.49878 -0.69297,-0.66809 -0.95937,-1.22258 -0.15638,-0.32546 -0.28469,-0.63541 -0.28514,-0.68877 -6.3e-4,-0.0534 -0.0508,-0.14139 -0.11194,-0.19563 -0.0611,-0.0543 -0.18728,-0.19633 -0.28035,-0.31574 -0.0931,-0.11942 -0.24306,-0.30284 -0.3333,-0.40762 -0.0902,-0.10477 -0.16411,-0.21383 -0.16415,-0.24236 -5e-5,-0.0285 -0.0715,-0.14552 -0.15883,-0.25999 -0.0873,-0.11447 -0.15875,-0.25211 -0.15875,-0.30586 0,-0.0538 -0.0571,-0.11267 -0.127,-0.13093 -0.0771,-0.0202 -0.127,-0.0866 -0.127,-0.16907 0,-0.0747 -0.12858,-0.37764 -0.28575,-0.67317 -0.15716,-0.29554 -0.28575,-0.57999 -0.28575,-0.63211 0,-0.0521 -0.0429,-0.0948 -0.0953,-0.0948 -0.11533,0 -0.12644,-0.10383 -0.0159,-0.14844 0.0635,-0.0256 0.0635,-0.033 0,-0.037 -0.0437,-0.003 -0.0794,-0.0764 -0.0794,-0.16376 0,-0.0873 -0.0219,-0.15875 -0.0487,-0.15875 -0.0551,0 -0.30386,-0.63114 -0.36288,-0.92075 -0.0564,-0.27694 -0.30155,-0.85725 -0.36208,-0.85725 -0.0285,0 -0.0518,-0.0871 -0.0518,-0.19365 0,-0.2818 -0.1472,-0.51966 -0.40704,-0.65772 -0.27016,-0.14355 -0.27634,-0.19969 -0.12985,-1.1794 0.054,-0.36088 0.0795,-0.74096 0.0567,-0.84462 -0.0266,-0.12136 -0.0134,-0.2058 0.0373,-0.23713 0.0607,-0.0375 0.055,-0.0825 -0.025,-0.1967 -0.057,-0.0814 -0.10369,-0.23983 -0.10369,-0.35202 0,-0.29613 -0.10303,-0.52156 -0.27398,-0.59945 -0.0822,-0.0375 -0.19479,-0.14475 -0.25011,-0.23839 -0.0553,-0.0936 -0.18896,-0.26276 -0.29699,-0.3758 -0.26719,-0.27958 -0.67366,-1.15265 -0.59482,-1.27762 0.0403,-0.0639 0.0208,-0.17409 -0.0607,-0.34274 -0.066,-0.13668 -0.15144,-0.49568 -0.18978,-0.79777 -0.0796,-0.62753 -0.10272,-2.38346 -0.0341,-2.59642 0.0252,-0.0782 0.0768,-0.46395 0.1147,-0.85725 0.0379,-0.39328 0.0835,-0.76507 0.10137,-0.82619 0.0279,-0.0954 -0.0127,-0.11113 -0.28709,-0.11113 -0.25939,0 -0.33295,-0.025 -0.39075,-0.13304 -0.083,-0.15512 -0.0474,-1.73991 0.0627,-2.78796 0.0385,-0.36671 0.0709,-1.26682 0.0719,-2.00025 0.002,-1.68552 0.0974,-3.06022 0.22533,-3.25727 0.052,-0.0802 0.077,-0.20136 0.0554,-0.2693 -0.0216,-0.0679 -0.0167,-0.15951 0.0107,-0.20349 0.0576,-0.0922 0.0612,-0.1117 0.1077,-0.58523 0.0191,-0.19462 0.0521,-0.382 0.0734,-0.4164 0.0213,-0.0344 10e-4,-0.063 -0.0445,-0.0635 -0.0523,-6.4e-4 -0.0589,-0.0183 -0.018,-0.0476 0.0358,-0.0257 0.0691,-0.18457 0.0739,-0.35314 0.005,-0.17496 0.0506,-0.35263 0.10609,-0.414 0.0736,-0.0813 0.0845,-0.1641 0.045,-0.33948 -0.0346,-0.15351 -0.0281,-0.2562 0.0193,-0.30361 0.0508,-0.0509 0.0721,-0.85826 0.0734,-2.78303 10e-4,-2.15417 0.0196,-2.75054 0.0886,-2.90189 0.0477,-0.10477 0.10945,-0.31909 0.13715,-0.47625 0.0708,-0.40176 0.12601,-0.65114 0.16863,-0.762 0.0502,-0.13065 0.0251,-0.75997 -0.0533,-1.3335 -0.16622,-1.21651 -0.326,-2.07586 -0.40986,-2.20439 -0.0986,-0.15109 -0.11882,-0.3865 -0.0432,-0.50222 0.0257,-0.0392 0.27789,-0.18732 0.56051,-0.32905 0.28263,-0.14173 0.60216,-0.33198 0.71008,-0.42279 0.24512,-0.20625 0.5857,-0.89306 0.58617,-1.18206 0,-0.11949 0.0292,-0.32127 0.0646,-0.44842 0.042,-0.15118 0.0429,-0.28731 0.002,-0.39338 -0.0502,-0.13196 -0.0267,-0.22771 0.12593,-0.51374 0.30311,-0.56801 0.23035,-0.99833 -0.28293,-1.67324 -0.34165,-0.44925 -0.36518,-0.60327 -0.10843,-0.70962 0.23954,-0.0992 0.45707,-0.33279 0.7239,-0.77726 0.20168,-0.33594 0.22001,-0.41215 0.25999,-1.08091 l 0.043,-0.71949 -0.19651,-0.36284 c -0.10809,-0.19955 -0.18055,-0.38867 -0.16103,-0.42026 0.0195,-0.0316 -0.0428,-0.10868 -0.13858,-0.17131 -0.0957,-0.0626 -0.2915,-0.24344 -0.43501,-0.40179 -0.23668,-0.26116 -0.28589,-0.28693 -0.52946,-0.27722 -0.28755,0.0115 -0.40251,0.0773 -0.52766,0.30203 -0.1889,0.33923 -0.43285,0.66186 -0.59862,0.79169 -0.0984,0.077 -0.32524,0.27946 -0.50418,0.44985 -0.17895,0.17039 -0.34097,0.29418 -0.36005,0.2751 -0.0191,-0.0191 -0.085,0.0464 -0.14645,0.14544 -0.0615,0.0991 -0.14233,0.20871 -0.1797,0.24363 -0.0374,0.0349 -0.18186,0.23495 -0.32109,0.4445 -0.13923,0.20955 -0.26997,0.39529 -0.29053,0.41275 -0.0206,0.0175 -0.0924,0.13004 -0.15961,0.25018 -0.0672,0.12013 -0.21484,0.30147 -0.32805,0.40298 -0.11321,0.1015 -0.24294,0.26038 -0.28829,0.35307 -0.047,0.0961 -0.12637,0.16114 -0.18466,0.15133 -0.13174,-0.0222 -0.64366,0.61588 -0.91475,1.14011 -0.0565,0.10926 -0.12727,0.22992 -0.15727,0.26812 -0.28803,0.36687 -0.5074,0.62217 -0.74175,0.86321 -0.15279,0.15716 -0.28153,0.31433 -0.28608,0.34925 -0.0107,0.0823 -0.0948,0.18679 -0.34874,0.43357 -0.11351,0.1103 -0.20638,0.21979 -0.20638,0.2433 0,0.0655 -0.63323,1.00805 -0.85292,1.26948 -0.10716,0.12752 -0.24829,0.30892 -0.31363,0.40313 -0.0653,0.0942 -0.31444,0.29782 -0.55355,0.4525 -0.24579,0.15901 -0.562,0.43918 -0.72753,0.64463 -0.16104,0.19987 -0.42629,0.51625 -0.58946,0.70308 -0.16316,0.18683 -0.35267,0.42972 -0.42112,0.53975 -0.0684,0.11003 -0.16133,0.22292 -0.20638,0.25084 -0.0451,0.0279 -0.0819,0.0908 -0.0819,0.13972 0,0.0489 -0.0379,0.11179 -0.0843,0.13972 -0.0464,0.0279 -0.13827,0.14365 -0.20419,0.25716 -0.0659,0.1135 -0.1388,0.20637 -0.16195,0.20637 -0.0232,0 -0.0768,0.0837 -0.11913,0.18594 -0.0424,0.10226 -0.11455,0.20034 -0.16042,0.21794 -0.0459,0.0176 -0.2497,0.32684 -0.45295,0.68719 -0.20325,0.36035 -0.435089,0.75519 -0.515189,0.87743 -0.0801,0.12224 -0.18085,0.27677 -0.22387,0.3434 -0.043,0.0666 -0.15679,0.21328 -0.25283,0.32589 -0.096,0.1126 -0.17463,0.22648 -0.17463,0.25307 0,0.0266 -0.31493,0.36014 -0.69986,0.74122 -0.69638,0.68943 -0.70017,0.69482 -0.76321,1.08627 -0.0348,0.21637 -0.0655,0.43626 -0.0681,0.48865 -0.003,0.0524 -0.0296,0.35243 -0.0601,0.66675 -0.0304,0.31433 -0.0882,1.08585 -0.12844,1.7145 -0.0402,0.62865 -0.092,1.15729 -0.1151,1.17475 -0.0231,0.0175 -0.0925,0.38764 -0.15435,0.82261 -0.0618,0.43497 -0.13588,0.82073 -0.16462,0.85725 -0.10696,0.1359 -0.12485,1.20103 -0.0296,1.76272 0.066,0.38944 0.0862,0.85962 0.068,1.5875 -0.0522,2.08924 -0.17404,3.95344 -0.30409,4.65339 -0.13103,0.70518 -0.14523,0.99992 -0.20932,4.34669 -0.0236,1.23264 -0.0123,1.52027 0.0657,1.67109 0.0518,0.10019 0.51511,0.60738 1.02954,1.12707 0.97772,0.98771 1.0464,1.03599 2.16855,1.52462 0.577029,0.25125 0.742109,0.36694 0.790779,0.55419 0.0204,0.0786 0.0653,0.14287 0.0997,0.14287 0.0344,0 0.2041,0.0683 0.37703,0.15168 0.37061,0.17879 0.69328,0.17309 1.24854,-0.0221 0.35087,-0.12332 0.53699,-0.10144 0.44217,0.052 -0.0735,0.11893 -0.57438,0.4276 -1.04843,0.6461 -0.4461,0.20563 -0.49789,0.21479 -1.20387,0.21301 -0.671279,-0.002 -1.457799,-0.1191 -1.880709,-0.28073 -0.0699,-0.0267 -0.31988,-0.0975 -0.55562,-0.1573 -0.23575,-0.0598 -0.42863,-0.13109 -0.42863,-0.15836 0,-0.0273 -0.17145,-0.10094 -0.381,-0.16371 -0.20955,-0.0628 -0.381,-0.1373 -0.381,-0.16562 0,-0.0283 -0.0598,-0.0515 -0.13297,-0.0515 -0.0731,0 -0.30888,-0.13418 -0.52388,-0.29818 -0.40077,-0.30572 -1.04936,-0.65432 -1.2174,-0.65432 -0.0518,0 -0.0942,-0.042 -0.0942,-0.0933 0,-0.0529 -0.0377,-0.0788 -0.0871,-0.0599 -0.0479,0.0184 -0.10528,-0.0141 -0.12754,-0.0721 -0.0246,-0.0641 -0.0798,-0.0904 -0.1405,-0.0671 -0.0625,0.024 -0.0903,0.009 -0.0741,-0.0393 0.0143,-0.0427 -0.15348,-0.23276 -0.37273,-0.42227 -0.24568,-0.21235 -0.41337,-0.41164 -0.43704,-0.5194 -0.026,-0.11855 -0.10366,-0.20164 -0.24109,-0.25805 -0.11147,-0.0458 -0.24094,-0.11283 -0.2877,-0.14905 -0.19939,-0.15442 -0.49819,-0.46055 -0.62208,-0.63735 -0.15204,-0.21696 -0.34065,-0.91153 -0.34065,-1.25443 0,-0.12668 -0.0244,-0.24541 -0.0542,-0.26385 -0.0298,-0.0184 -0.0717,-0.19872 -0.093,-0.40063 -0.0213,-0.20189 -0.0878,-0.79571 -0.14768,-1.31959 -0.13212,-1.15534 -0.1482,-3.38812 -0.0329,-4.572 0.12277,-1.26089 0.204,-1.83548 0.26887,-1.90182 0.0736,-0.0753 0.0777,-0.28893 0.005,-0.28893 -0.0733,0 -0.18416,-0.39101 -0.26141,-0.92213 -0.0855,-0.58759 0.121,-4.41377 0.2513,-4.65697 0.0307,-0.0573 0.0996,-0.42888 0.15317,-0.82578 0.0536,-0.3969 0.12406,-0.75408 0.15667,-0.79375 0.0326,-0.0397 0.0952,-0.25786 0.13911,-0.48487 0.0439,-0.22701 0.11626,-0.4699 0.1608,-0.53975 0.0445,-0.0699 0.11679,-0.32702 0.16056,-0.5715 0.0438,-0.24447 0.0985,-0.45879 0.12169,-0.47625 0.0232,-0.0175 0.0787,-0.18591 0.12338,-0.37433 0.0447,-0.18842 0.11907,-0.41546 0.16528,-0.50453 0.0462,-0.0891 0.11921,-0.29923 0.16221,-0.46704 0.043,-0.16781 0.10137,-0.3051 0.12969,-0.3051 0.0283,0 0.0515,-0.0419 0.0515,-0.0931 0,-0.0512 0.0857,-0.18076 0.1905,-0.28794 0.21042,-0.21524 0.20577,-0.18538 0.21544,-1.38556 0.006,-0.71988 0.0226,-0.85465 0.11298,-0.90525 0.0584,-0.0327 0.12495,-0.145 0.14792,-0.24957 0.023,-0.10456 0.0637,-0.19012 0.0906,-0.19012 0.0268,0 0.10035,-0.1143 0.16335,-0.254 0.063,-0.1397 0.13567,-0.254 0.1615,-0.254 0.0258,0 0.0927,-0.1143 0.14859,-0.254 0.0559,-0.1397 0.12822,-0.254 0.16072,-0.254 0.0325,0 0.0921,-0.10001 0.13244,-0.22225 0.0403,-0.12224 0.0973,-0.22225 0.12646,-0.22225 0.0292,0 0.16074,-0.19247 0.2923,-0.42772 0.13156,-0.23524 0.26234,-0.45669 0.29063,-0.49212 0.0283,-0.0354 0.20886,-0.27872 0.40127,-0.54066 0.19241,-0.26194 0.39432,-0.5334 0.44869,-0.60325 0.0544,-0.0699 0.26956,-0.3556 0.47819,-0.635 0.20863,-0.2794 0.45775,-0.59372 0.55359,-0.6985 0.16531,-0.18073 0.28542,-0.343 0.53461,-0.72233 0.0602,-0.0917 0.1386,-0.20953 0.17418,-0.26192 0.0356,-0.0524 0.15623,-0.23812 0.26811,-0.41275 0.11189,-0.17462 0.26211,-0.39271 0.33382,-0.48463 0.0717,-0.0919 0.20183,-0.25805 0.28915,-0.36916 0.1664,-0.21175 1.332909,-1.29552 1.746609,-1.62271 0.13247,-0.10477 0.2866,-0.23451 0.3425,-0.2883 0.0559,-0.0538 0.28737,-0.25267 0.51439,-0.44195 0.22701,-0.18928 0.46275,-0.3941 0.52387,-0.45517 0.12553,-0.12541 0.15429,-0.56083 0.037,-0.56083 -0.0407,0 -0.0547,-0.0194 -0.0309,-0.0432 0.0564,-0.0564 -0.45012,-0.52834 -0.56707,-0.52834 -0.0495,0 -0.0899,-0.0265 -0.0899,-0.0589 0,-0.0324 -0.1643,-0.0943 -0.36512,-0.13749 -0.20082,-0.0432 -0.3937,-0.0979 -0.42863,-0.1215 -0.0721,-0.0487 -0.92844,0.81983 -1.484429,1.50563 -0.20397,0.25158 -0.66304,0.77125 -1.02014,1.1548 -0.35711,0.38356 -0.72893,0.82295 -0.82626,0.97644 -0.0973,0.15348 -0.34383,0.41963 -0.54777,0.59144 -0.20394,0.17181 -0.52995,0.46074 -0.72448,0.64208 -0.19453,0.18133 -0.51585,0.43976 -0.71405,0.57427 -0.1982,0.13452 -0.42829,0.34335 -0.5113,0.46406 -0.083,0.12071 -0.30576,0.43475 -0.495,0.69787 -0.18924,0.26312 -0.42817,0.64888 -0.53095,0.85725 -0.10279,0.20837 -0.25475,0.46194 -0.3377,0.56349 -0.0829,0.10155 -0.2607,0.40318 -0.395,0.67029 -0.1343,0.26711 -0.29086,0.52439 -0.3479,0.57173 -0.0612,0.0508 -0.39374,0.11103 -0.81184,0.14698 l -0.70812,0.0609 -0.48622,0.38923 c -0.267429,0.21408 -0.565399,0.45144 -0.662169,0.52746 -0.0968,0.076 -0.30093,0.17514 -0.45368,0.22024 -0.15276,0.0451 -0.27774,0.1025 -0.27774,0.12754 0,0.025 -0.10001,0.0817 -0.22225,0.12589 -0.12223,0.0442 -0.22225,0.10176 -0.22225,0.12791 0,0.0262 -0.17015,0.081 -0.37812,0.12194 -0.2107,0.0415 -0.42593,0.12722 -0.48609,0.1937 -0.0594,0.0656 -0.16581,0.1193 -0.2365,0.1193 -0.16257,0 -0.55029,0.13823 -0.55029,0.19619 0,0.024 -0.10715,0.0635 -0.23812,0.0877 -0.13097,0.0242 -0.32385,0.0826 -0.42863,0.12972 -0.10477,0.0471 -0.36195,0.11906 -0.5715,0.1599 -0.47121,0.0918 -1.10949,0.4158 -1.53024,0.7767 -0.0733,0.0629 -0.36355,0.19573 -0.64503,0.29527 -0.28147,0.0995 -0.77872,0.32427 -1.105,0.4994 -1.04822,0.56267 -1.78014,0.57414 -2.14898,0.0337 -0.12988,-0.19031 -0.15723,-0.30273 -0.1504,-0.61824 0.0151,-0.69698 0.35778,-1.58365 0.81167,-2.10014 0.12277,-0.1397 0.27424,-0.35401 0.3366,-0.47625 0.12039,-0.23599 0.94281,-1.09592 1.24754,-1.30444 0.0999,-0.0684 0.21542,-0.15288 0.25669,-0.18781 0.0413,-0.0349 0.13096,-0.0984 0.19933,-0.14099 0.7196,-0.44856 0.89362,-0.5648 0.99037,-0.66155 0.10436,-0.10436 0.46873,-0.29133 0.85087,-0.43663 0.0889,-0.0338 0.21041,-0.14723 0.27008,-0.2521 0.0597,-0.10487 0.12993,-0.19086 0.15613,-0.19108 0.0262,0 0.0476,-0.0398 0.0476,-0.088 0,-0.0482 0.1643,-0.24539 0.36512,-0.4382 0.89244,-0.85686 1.29727,-1.22198 1.39887,-1.26165 0.33009,-0.12889 2.33916,-2.03479 2.26737,-2.15094 -0.037,-0.06 0.53272,-0.63324 0.63048,-0.63436 0.0727,-8.2e-4 0.354659,-0.39969 0.354659,-0.50178 0,-0.0329 0.0357,-0.0978 0.0794,-0.1442 0.0437,-0.0464 0.15081,-0.18731 0.23812,-0.31318 0.17686,-0.25494 1.25941,-1.43508 1.55575,-1.69601 0.10478,-0.0923 0.44768,-0.42913 0.762,-0.74862 0.60522,-0.61516 0.69618,-0.67611 0.87313,-0.5851 0.16242,0.0835 0.15289,0.73437 -0.0159,1.08367 -0.0699,0.14458 -0.127,0.28282 -0.127,0.3072 0,0.0244 -0.11189,0.2119 -0.24865,0.4167 -0.13676,0.2048 -0.32142,0.51724 -0.41036,0.69431 -0.0889,0.17708 -0.25811,0.42418 -0.37595,0.54913 -0.11784,0.12494 -0.25097,0.31582 -0.29585,0.42417 -0.0449,0.10835 -0.10365,0.197 -0.1306,0.197 -0.0269,0 -0.0669,0.0467 -0.0888,0.1038 -0.0219,0.0571 0.0822,-0.005 0.23133,-0.13824 0.48987,-0.43728 2.1494,-2.05453 2.16103,-2.10598 0.006,-0.0277 0.093,-0.11898 0.19267,-0.20288 0.34963,-0.2942 0.55273,-0.52493 0.55473,-0.63021 0.003,-0.14052 0.15649,-0.33907 0.21681,-0.27988 0.0261,0.0257 0.0399,-0.0248 0.0306,-0.11211 -0.0218,-0.20464 0.16459,-0.5417 0.46248,-0.83652 0.59754,-0.5914 0.79513,-0.86132 0.83754,-1.14415 0.0231,-0.15432 0.0953,-0.32618 0.1604,-0.3819 0.0651,-0.0557 0.1385,-0.22078 0.16317,-0.36681 0.0247,-0.14602 0.0846,-0.34175 0.13326,-0.43493 0.0486,-0.0932 0.0886,-0.24616 0.0888,-0.33993 1.9e-4,-0.0938 0.0283,-0.24379 0.0623,-0.33338 0.058,-0.15264 0.0498,-0.16288 -0.13063,-0.16288 -0.22643,0 -0.77457,0.12813 -0.8203,0.19175 -0.0175,0.0243 -0.26035,0.0942 -0.53975,0.15538 -0.2794,0.0612 -0.53658,0.13414 -0.5715,0.16216 -0.1328,0.10656 -1.50466,0.33115 -2.57175,0.42103 -1.02991,0.0867 -1.4605,0.17275 -1.4605,0.29168 0,0.0264 -0.0308,0.048 -0.0685,0.048 -0.0665,0 -0.79742,0.57682 -1.157309,0.91331 -0.0979,0.0916 -0.26223,0.21 -0.36512,0.26321 -0.1029,0.0532 -0.18708,0.12266 -0.18708,0.15433 0,0.0317 -0.0551,0.0751 -0.12246,0.0965 -0.10144,0.0322 -0.51961,0.34067 -1.02607,0.75691 -0.0554,0.0455 -0.18401,0.10359 -0.28575,0.12897 -0.10173,0.0254 -0.31131,0.12965 -0.46573,0.23173 -0.15442,0.10207 -0.31873,0.18559 -0.36513,0.18559 -0.0464,0 -0.0844,0.0242 -0.0844,0.0539 0,0.0296 -0.11345,0.10501 -0.25211,0.16754 -0.13867,0.0625 -0.30026,0.16688 -0.3591,0.2319 -0.0588,0.065 -0.15734,0.1182 -0.21891,0.1182 -0.0616,0 -0.25417,0.0714 -0.42801,0.15875 -0.17383,0.0873 -0.34763,0.15875 -0.38621,0.15875 -0.0386,0 -0.0701,0.0227 -0.0701,0.0503 0,0.0277 -0.15717,0.10377 -0.34925,0.16906 -0.19209,0.0653 -0.34925,0.14266 -0.34925,0.1719 0,0.0292 -0.0515,0.0532 -0.11454,0.0532 -0.063,0 -0.25587,0.0682 -0.42862,0.1515 -0.17275,0.0833 -0.45659,0.18545 -0.63075,0.22694 -0.17416,0.0415 -0.34561,0.0994 -0.381,0.12858 -0.0354,0.0292 -0.25001,0.10116 -0.47694,0.15986 -0.22693,0.0587 -0.42695,0.12732 -0.4445,0.15246 -0.0175,0.0251 -0.23193,0.0985 -0.4764,0.16308 -0.24448,0.0645 -0.45879,0.13702 -0.47625,0.16105 -0.0175,0.024 -0.24607,0.0948 -0.508,0.15728 -0.26194,0.0625 -0.50483,0.13417 -0.53975,0.15932 -0.0349,0.0251 -0.24924,0.0811 -0.47625,0.12429 -0.22702,0.0432 -0.44133,0.1003 -0.47625,0.12684 -0.0349,0.0265 -0.26308,0.0973 -0.507,0.15723 -0.24393,0.0599 -0.46302,0.14054 -0.48687,0.17914 -0.06,0.0971 -1.04815,0.0815 -1.16854,-0.0184 -0.14948,-0.12406 -0.93638,-0.11408 -1.06404,0.0135 -0.0583,0.0583 -0.19916,0.12536 -0.31303,0.1491 -0.11386,0.0238 -0.26417,0.0789 -0.33402,0.12256 -0.0699,0.0437 -0.28417,0.11604 -0.47625,0.16084 -0.19209,0.0448 -0.37783,0.10294 -0.41275,0.12921 -0.0941,0.0708 -0.63404,0.17405 -1.17475,0.22473 -0.26194,0.0246 -0.51637,0.0767 -0.56541,0.11588 -0.13132,0.10493 -5.94594,0.094 -6.05132,-0.0113 -0.0419,-0.0419 -0.1919,-0.0772 -0.33335,-0.0784 -0.34451,-0.003 -1.25172,-0.1674 -1.29897,-0.23544 -0.0207,-0.0298 -0.16629,-0.0899 -0.32345,-0.13349 -0.15717,-0.0436 -0.3429,-0.1052 -0.41275,-0.13694 -0.56742,-0.2579 -0.59898,-0.26151 -2.23344,-0.25572 -1.03468,0.004 -1.61269,-0.0174 -1.63887,-0.0598 -0.0222,-0.036 -0.18786,-0.0654 -0.36805,-0.0654 -0.4121,0 -2.03526,-0.19741 -2.07789,-0.25272 -0.0175,-0.0226 -0.27464,-0.0776 -0.5715,-0.12207 -0.29687,-0.0445 -0.56833,-0.10305 -0.60325,-0.13013 -0.0349,-0.0271 -0.27573,-0.10031 -0.53511,-0.16275 -0.25938,-0.0624 -0.54357,-0.15085 -0.63153,-0.19648 -0.088,-0.0456 -0.29721,-0.11816 -0.46502,-0.16116 -0.1678,-0.043 -0.30509,-0.10137 -0.30509,-0.12969 0,-0.0283 -0.0357,-0.052 -0.0794,-0.0526 -0.10279,-0.001 -0.9285,-0.41314 -1.397,-0.69665 -0.2193,-0.13271 -0.36513,-0.26496 -0.36513,-0.33113 0,-0.0711 -0.0333,-0.0974 -0.0938,-0.0742 -0.06,0.023 -0.12088,-0.0235 -0.16894,-0.12899 -0.0413,-0.0907 -0.0992,-0.16498 -0.12848,-0.16498 -0.0293,0 -0.0533,-0.0529 -0.0533,-0.11752 0,-0.19177 -0.13472,-0.5202 -0.19747,-0.48142 -0.0775,0.0479 -0.67837,-0.47096 -0.89939,-0.7767 -0.29948,-0.41425 -0.48097,-0.70836 -0.45386,-0.73547 0.0143,-0.0143 -0.0698,-0.13803 -0.18679,-0.27504 -0.117,-0.137 -0.30725,-0.42055 -0.42278,-0.6301 -0.11552,-0.20955 -0.26417,-0.44176 -0.33033,-0.51603 -0.1268,-0.14236 -0.60589,-0.95906 -0.81477,-1.38897 -0.0679,-0.1397 -0.20838,-0.38259 -0.31221,-0.53975 -0.36456,-0.55179 -0.63764,-1.1841 -0.76662,-1.77508 -0.15706,-0.71961 -0.16545,-0.95063 -0.0709,-1.952 0.0789,-0.83539 0.15835,-1.09892 0.3314,-1.09892 0.11555,0 0.37584,0.42655 0.37898,0.62108 9.8e-4,0.06 0.0867,0.22142 0.1905,0.35861 0.10381,0.13719 0.18874,0.26975 0.18874,0.29458 0,0.0248 0.1143,0.24075 0.254,0.4798 0.1397,0.23907 0.254,0.48367 0.254,0.54356 0,0.0599 0.10715,0.18878 0.23812,0.2864 0.13097,0.0976 0.25241,0.19288 0.26988,0.21169 0.0564,0.0607 0.65766,0.42416 0.98374,0.5946 0.23821,0.1245 0.41182,0.1659 0.6985,0.16655 0.4687,0.001 0.66726,0.0503 0.66726,0.16529 0,0.0483 0.0255,0.0879 0.0566,0.0879 0.0311,0 0.0758,0.0786 0.0992,0.17462 0.046,0.18859 0.41262,0.97981 0.47819,1.03187 0.022,0.0175 0.0795,0.13177 0.12771,0.25401 0.0482,0.12223 0.21094,0.36107 0.36152,0.53074 0.15058,0.16967 0.27379,0.34141 0.27379,0.38165 0,0.15738 0.36133,0.4666 0.47351,0.40523 0.016,-0.009 0.066,0.0309 0.11113,0.0882 0.13792,0.17478 0.51222,0.20452 0.70138,0.0557 0.0895,-0.0704 0.18683,-0.12851 0.21624,-0.1291 0.0294,-6.3e-4 0.16661,-0.11584 0.30488,-0.25612 0.30423,-0.30866 0.4027,-0.33683 1.03394,-0.29575 0.4904,0.0319 1.66632,0.25152 1.80468,0.33703 0.0399,0.0247 0.28971,0.0486 0.55505,0.0532 0.46912,0.008 1.1141,0.1163 1.37144,0.22998 0.0699,0.0309 0.38417,0.1026 0.6985,0.15942 0.31432,0.0568 0.60007,0.12516 0.635,0.15187 0.0349,0.0267 0.27781,0.0992 0.53975,0.16114 0.26193,0.0619 0.50482,0.1347 0.53975,0.1617 0.0349,0.027 0.27579,0.093 0.53525,0.14655 0.26203,0.0541 0.49494,0.13888 0.52391,0.19064 0.0287,0.0513 0.16644,0.11252 0.30612,0.13612 0.13968,0.0236 0.25397,0.0666 0.25397,0.0956 0,0.029 0.12858,0.10177 0.28575,0.16179 0.15716,0.06 0.28575,0.13177 0.28575,0.15945 0,0.0277 0.1643,0.0857 0.36512,0.12899 0.44551,0.096 0.92754,0.32691 1.05134,0.50366 0.0843,0.1203 0.11723,0.12526 0.40129,0.0605 0.17022,-0.0388 0.35539,-0.095 0.41148,-0.12472 0.0561,-0.0298 0.66757,-0.0895 1.35882,-0.1328 1.01653,-0.0636 1.3734,-0.063 1.86651,0.003 0.33533,0.0451 0.63826,0.10394 0.67319,0.13087 0.0349,0.0269 0.5207,0.1 1.0795,0.16235 0.5588,0.0624 1.03284,0.13796 1.05342,0.168 0.0206,0.03 0.34919,0.0544 0.73025,0.0542 0.90364,-6.4e-4 1.27497,-0.1299 1.55544,-0.54171 0.0844,-0.12386 0.1785,-0.2254 0.20919,-0.22564 0.0307,0 0.16289,-0.0933 0.29378,-0.2068 0.35753,-0.31006 0.52552,-0.42863 0.60727,-0.42863 0.0406,0 0.14192,-0.0531 0.22521,-0.11796 0.0833,-0.0649 0.25859,-0.15634 0.38956,-0.20325 0.13097,-0.0469 0.23813,-0.10425 0.23813,-0.12742 0,-0.0232 0.13573,-0.0934 0.30162,-0.15604 0.1659,-0.0627 0.31591,-0.13346 0.33338,-0.15733 0.0175,-0.0239 0.16748,-0.0947 0.33337,-0.15733 0.1659,-0.0627 0.30163,-0.13288 0.30163,-0.15604 0,-0.0232 0.0929,-0.0758 0.20637,-0.11704 0.11351,-0.0412 0.36354,-0.17862 0.55563,-0.30534 0.19208,-0.12674 0.4564,-0.27332 0.58737,-0.32573 0.13097,-0.0524 0.23813,-0.11768 0.23813,-0.14503 0,-0.0273 0.0686,-0.0669 0.15237,-0.088 0.0838,-0.021 0.4129,-0.25096 0.73133,-0.51095 0.31842,-0.25999 0.63562,-0.49069 0.70488,-0.51267 0.0693,-0.022 0.12592,-0.0645 0.12592,-0.0945 0,-0.03 0.05,-0.0698 0.11112,-0.0885 0.0611,-0.0187 -0.003,-0.0177 -0.14287,0.002 -0.69149,0.0983 -1.45848,0.12683 -2.12274,0.079 -0.40412,-0.0291 -1.22054,-0.0841 -1.81426,-0.12216 -0.66242,-0.0425 -1.15681,-0.10456 -1.2796,-0.16059 -0.11005,-0.0502 -0.2815,-0.0926 -0.381,-0.0941 -0.0995,-0.002 -0.2952,-0.0447 -0.4349,-0.096 -0.1397,-0.0512 -0.38259,-0.1221 -0.53975,-0.15745 -0.41187,-0.0926 -0.635,-0.1921 -0.635,-0.28307 0,-0.0472 -0.12762,-0.0963 -0.31489,-0.12114 -0.17319,-0.023 -0.32987,-0.066 -0.34817,-0.0956 -0.0183,-0.0296 -0.16685,-0.0875 -0.33009,-0.12859 -0.39475,-0.0994 -1.04408,-0.40701 -1.42641,-0.67574 -0.1703,-0.1197 -0.33565,-0.21764 -0.36744,-0.21764 -0.0318,0 -0.15782,-0.10001 -0.28005,-0.22225 -0.12224,-0.12224 -0.2394,-0.22225 -0.26035,-0.22225 -0.0439,0 -0.0359,0.007 -1.01314,-0.93655 -0.44461,-0.42949 -0.73946,-0.76348 -0.73946,-0.83764 0,-0.0678 -0.0247,-0.13862 -0.055,-0.1573 -0.0302,-0.0187 -0.042,-0.10211 -0.026,-0.18535 0.0212,-0.11084 -0.004,-0.15999 -0.0941,-0.18354 -0.17637,-0.0461 -0.44245,-0.42093 -0.60494,-0.85211 -0.11802,-0.31322 -0.13831,-0.48577 -0.12879,-1.09564 0.006,-0.39812 0.0385,-0.74102 0.0718,-0.762 0.0333,-0.021 0.10466,-0.29591 0.1586,-0.61098 0.078,-0.45544 0.0857,-0.71573 0.0379,-1.27 -0.0331,-0.38343 -0.0728,-0.74001 -0.0882,-0.7924 -0.0604,-0.20526 -0.0908,-3.60132 -0.0444,-4.953 0.0467,-1.36012 0.057,-1.44465 0.2138,-1.7599 0.11355,-0.22829 0.17876,-0.48974 0.20991,-0.84173 0.0249,-0.28082 0.0708,-0.5264 0.10206,-0.54572 0.0313,-0.0193 0.057,-0.12633 0.0572,-0.23777 5.7e-4,-0.32528 0.18567,-1.46217 0.24431,-1.50082 0.0295,-0.0194 0.0724,-0.19938 0.0954,-0.39991 0.025,-0.21814 0.11819,-0.5057 0.23186,-0.71581 0.1045,-0.19316 0.19001,-0.39355 0.19001,-0.44531 0,-0.0518 0.15657,-0.39402 0.34794,-0.76057 0.19136,-0.36655 0.31995,-0.66646 0.28575,-0.66646 -0.0876,0 -0.0777,-0.40362 0.0122,-0.49348 0.0568,-0.0568 0.0306,-0.10837 -0.11113,-0.21853 -0.8881,-0.69016 -1.43158,-1.53641 -1.84688,-2.87574 -0.0541,-0.17462 -0.15445,-0.48895 -0.2229,-0.6985 -0.0684,-0.20955 -0.14733,-0.50959 -0.17529,-0.66675 -0.028,-0.15716 -0.0955,-0.41434 -0.15006,-0.5715 -0.45182,-1.30094 -0.45767,-1.32899 -0.45077,-2.159 0.004,-0.43656 0.0349,-0.86371 0.0696,-0.94923 0.0414,-0.10234 0.0416,-0.22512 3.9e-4,-0.35927 -0.0691,-0.22513 0.17236,-2.4395 0.27276,-2.50156 0.0299,-0.0185 0.10126,-0.30413 0.15864,-0.63482 0.0574,-0.33069 0.12767,-0.63031 0.15622,-0.66581 0.0285,-0.0355 0.0882,-0.22886 0.13258,-0.42968 0.0444,-0.20082 0.0993,-0.36513 0.12207,-0.36513 0.0228,0 0.0789,-0.15002 0.12483,-0.33337 0.1112,-0.44426 0.34343,-0.94054 0.67998,-1.45317 0.15212,-0.23171 0.27659,-0.45078 0.27659,-0.48683 0,-0.0361 0.0342,-0.0769 0.0759,-0.0909 0.0492,-0.0164 0.085,-0.23624 0.10157,-0.62442 0.0234,-0.54725 0.0135,-0.61285 -0.11434,-0.75786 -0.12159,-0.13789 -0.13589,-0.21097 -0.10884,-0.55624 0.0171,-0.21862 0.059,-0.43293 0.093,-0.47625 0.034,-0.0433 0.11493,-0.22163 0.17981,-0.39626 0.0649,-0.17462 0.14067,-0.34607 0.16843,-0.381 0.28764,-0.36193 0.43154,-0.57172 0.46546,-0.67859 0.0223,-0.0702 0.0877,-0.17863 0.14538,-0.24089 0.18426,-0.1989 0.32711,-0.40609 0.32719,-0.47456 6e-5,-0.0619 0.0771,-0.16308 0.47867,-0.62861 0.0859,-0.0996 0.15625,-0.20704 0.15625,-0.23868 0,-0.10078 0.38186,-0.58897 0.60375,-0.77188 0.11778,-0.0971 0.2316,-0.23152 0.25294,-0.29877 0.0213,-0.0673 0.0944,-0.13992 0.16241,-0.1615 0.068,-0.0216 0.13968,-0.11591 0.15934,-0.20962 0.0197,-0.0937 0.0606,-0.21688 0.091,-0.2737 0.0304,-0.0568 0.0747,-0.20684 0.0985,-0.33338 0.0237,-0.12654 0.0614,-0.23039 0.0837,-0.23079 0.0223,-3.9e-4 0.0947,-0.11384 0.16096,-0.25208 0.0662,-0.13824 0.19294,-0.30222 0.2816,-0.36439 0.30696,-0.21528 2.28443,-2.22446 2.46218,-2.50166 0.0982,-0.15312 0.32463,-0.449849 0.50322,-0.659399 0.45121,-0.529452 0.81542,-1.041714 0.91423,-1.285875 0.0459,-0.113507 0.10149,-0.206623 0.12344,-0.206926 0.0624,-8.64e-4 0.47388,-0.411918 0.57968,-0.579145 0.15488,-0.244818 0.82492,-0.865157 1.02315,-0.947269 0.10087,-0.04177 0.18337,-0.09759 0.18337,-0.124036 0,-0.02645 0.0857,-0.0836 0.1905,-0.126999 0.10478,-0.0434 0.1905,-0.09828 0.1905,-0.121948 0,-0.02367 0.0962,-0.07782 0.21372,-0.12032 0.11754,-0.0425 0.27489,-0.126826 0.34967,-0.187381 0.0748,-0.06056 0.27639,-0.209341 0.44803,-0.330633 0.17164,-0.121293 0.30051,-0.239259 0.28636,-0.262147 -0.0345,-0.05576 0.85775,-0.893894 1.20836,-1.135115 0.15345,-0.105576 0.3429,-0.191956 0.42101,-0.191956 0.0781,0 0.12469,-0.01733 0.10351,-0.03851 -0.0929,-0.09291 0.21815,-0.301555 0.47667,-0.31974 0.48595,-0.03418 0.87639,-0.101965 0.91113,-0.158173 0.0631,-0.102104 0.38251,-0.05609 0.5237,0.07545 l 0.1401,0.130522 0.1833,-0.130522 c 0.19674,-0.140096 0.7886,-0.186103 0.86219,-0.06702 0.0216,0.03493 0.13495,0.0635 0.25193,0.0635 0.32364,0 1.77144,0.196162 1.84357,0.249786 0.0349,0.02596 0.31354,0.09832 0.61913,0.160805 0.30559,0.06248 0.55562,0.134008 0.55562,0.158953 0,0.02494 0.11506,0.07982 0.25568,0.121955 0.14062,0.04213 0.362079,0.147191 0.492129,0.233466 0.13004,0.08628 0.29199,0.192058 0.35988,0.235074 0.0679,0.04302 0.31186,0.252174 0.54216,0.464797 0.54736,0.505359 0.66959,0.579063 1.0489,0.632475 0.17463,0.02459 0.34608,0.06587 0.381,0.09172 0.0349,0.02586 0.34211,0.09633 0.68263,0.15661 0.34052,0.06028 0.61912,0.131625 0.61912,0.158549 0,0.02693 0.1786,0.08571 0.39688,0.130636 0.21828,0.04492 0.42545,0.10204 0.46037,0.126921 0.0349,0.02488 0.13703,0.06274 0.2269,0.08413 0.0899,0.02139 0.26131,0.104951 0.381,0.185685 0.11968,0.08073 0.31762,0.186992 0.43985,0.23613 0.12224,0.04914 0.23654,0.106207 0.254,0.126822 0.0175,0.02061 0.25321,0.150223 0.52388,0.288018 0.27067,0.137795 0.49212,0.269103 0.49212,0.291794 0,0.05195 0.2852,0.163072 0.55563,0.216492 0.11351,0.02242 0.20637,0.06248 0.20637,0.08903 0,0.02654 0.0701,0.08019 0.1557,0.119202 0.0856,0.03902 0.20067,0.157903 0.25563,0.264193 0.055,0.106289 0.13968,0.193253 0.18826,0.193253 0.0486,0 0.0999,0.0346 0.11396,0.0769 0.0191,0.05743 0.43613,0.07752 1.647259,0.07937 l 1.62162,0.0025 0.0107,-0.355005 c 0.006,-0.195253 -0.0325,-0.538153 -0.0853,-0.762 -0.1495,-0.63423 -0.13101,-0.844023 0.0908,-1.030691 0.19189,-0.161465 0.6666,-0.297053 1.04003,-0.297053 0.11353,0 0.24214,-0.03572 0.28579,-0.07937 0.1065,-0.106525 3.48304,-0.115272 3.5518,-0.0092 0.025,0.03859 0.15979,0.106341 0.29949,0.150546 0.1397,0.0442 0.28114,0.105495 0.31432,0.136201 0.0332,0.03071 0.0986,0.05583 0.14531,0.05583 0.0674,0 0.0812,-0.165299 0.0667,-0.801316 l -0.0183,-0.801315 0.17453,-0.131767 c 0.18151,-0.137034 0.15053,-0.134389 2.07972,-0.177513 0.32712,-0.0073 0.63211,0.03341 0.97404,0.130042 0.27379,0.07738 0.50414,0.131335 0.51189,0.119903 0.0186,-0.02749 -0.0636,-1.2949 -0.14349,-2.211726 -0.035,-0.401743 -0.097,-0.816081 -0.13783,-0.92075 -0.0408,-0.10467 -0.0996,-0.533209 -0.1307,-0.952309 -0.0311,-0.4191 -0.0857,-1.062037 -0.12139,-1.428749 -0.0357,-0.366713 -0.0622,-1.195388 -0.0589,-1.841501 0.008,-1.520012 0.0121,-1.458084 -0.10811,-1.504215 -0.12646,-0.04853 -0.52724,-0.471588 -0.53006,-0.559535 -0.002,-0.06338 -0.29654,-0.381043 -0.54584,-0.588768 -0.0724,-0.06035 -0.1757,-0.195457 -0.22947,-0.300231 -0.21103,-0.411193 -0.28687,-0.525483 -0.64918,-0.978385 -0.20644,-0.25805 -0.44129,-0.599466 -0.52191,-0.758701 -0.12982,-0.256428 -0.43165,-0.646153 -0.81725,-1.055222 -0.0699,-0.0741 -0.16317,-0.214273 -0.20736,-0.311492 -0.0442,-0.09722 -0.2392,-0.324461 -0.43332,-0.504982 -0.19412,-0.18052 -0.44607,-0.456806 -0.55989,-0.613969 -0.11381,-0.157162 -0.43005,-0.4572 -0.70275,-0.66675 -0.61235,-0.470545 -1.5571,-1.364148 -1.93843,-1.833496 -0.15716,-0.193437 -0.33395,-0.368591 -0.39285,-0.389231 -0.0589,-0.02064 -0.27656,-0.200481 -0.48368,-0.399649 -0.20712,-0.199168 -0.44969,-0.418291 -0.53906,-0.486939 -0.0894,-0.06865 -0.15048,-0.144236 -0.13581,-0.167972 0.0147,-0.02373 -0.0178,-0.06023 -0.0722,-0.08111 -0.0544,-0.02088 -0.0827,-0.0642 -0.0629,-0.09628 0.0198,-0.03208 -0.006,-0.139438 -0.0575,-0.238574 -0.0515,-0.09914 -0.11026,-0.314539 -0.13069,-0.478675 -0.0271,-0.218088 -0.0698,-0.308808 -0.15861,-0.336983 -0.16365,-0.05194 -0.6972,-0.576146 -0.6972,-0.68499 0,-0.04779 -0.0683,-0.123431 -0.15174,-0.168095 -0.0835,-0.04466 -0.1846,-0.142361 -0.22476,-0.217105 -0.16304,-0.303388 -0.24976,-0.440763 -0.30166,-0.477852 -0.13029,-0.0931 -0.25899,-0.69643 -0.20699,-0.970323 0.0599,-0.315565 0.0137,-0.723166 -0.0911,-0.804459 -0.082,-0.06353 -1.115059,-0.174844 -2.452699,-0.264269 -0.50642,-0.03386 -1.10649,-0.07827 -1.3335,-0.0987 -0.41768,-0.03759 -1.0847,-0.205434 -1.143,-0.287623 -0.0481,-0.06775 -0.79833,-0.439424 -0.88703,-0.439424 -0.0689,0 -0.69425,-0.319605 -0.85922,-0.439121 -0.0349,-0.0253 -0.19209,-0.08505 -0.34925,-0.132774 -0.15717,-0.04772 -0.37065,-0.145041 -0.47442,-0.21626 -0.37004,-0.253976 -1.4664,-0.400856 -2.605329,-0.349038 -0.83271,0.03789 -1.01536,0.07887 -2.26291,0.507717 -0.55715,0.191523 -0.70603,0.06915 -0.47801,-0.3929 0.18551,-0.375909 0.87161,-1.038151 1.54919,-1.495314 0.65717,-0.443394 0.68773,-0.456276 1.794049,-0.756214 0.95912,-0.260032 1.41882,-0.320645 3.11243,-0.410386 0.64611,-0.03424 1.4426,-0.08606 1.76997,-0.115156 0.48385,-0.04301 0.72147,-0.02986 1.27,0.07027 0.37113,0.06775 1.17484,0.145626 1.78603,0.17306 0.62941,0.02825 1.441649,0.109072 1.873249,0.186392 0.4191,0.07508 1.08737,0.177321 1.48504,0.2272 0.39767,0.04988 0.73718,0.104834 0.75447,0.122122 0.0173,0.01729 0.0777,0.0067 0.13421,-0.02349 0.13204,-0.07057 0.62564,0.09064 0.81652,0.266672 0.1212,0.111766 0.16628,0.120231 0.30462,0.0572 0.0893,-0.04069 0.21103,-0.07343 0.2705,-0.07276 0.0595,6.71e-4 0.36888,0.250703 0.68756,0.555625 0.31868,0.304923 0.75622,0.709495 0.9723,0.899048 0.21609,0.189554 0.46853,0.475304 0.561,0.635 0.17809,0.30759 0.39392,0.559707 0.80803,0.943925 0.56716,0.52621 0.84158,0.849183 1.01952,1.199913 0.24585,0.484554 0.4669,0.828219 0.663,1.030721 0.46081,0.475879 0.80993,0.967757 1.30223,1.834752 0.0349,0.06151 0.17436,0.282204 0.30985,0.490439 0.38327,0.589026 0.51334,0.796095 0.73646,1.172358 0.1139,0.192087 0.25369,0.395163 0.31064,0.451281 0.35129,0.346143 0.52121,0.646608 0.75028,1.326719 0.0529,0.157162 0.29247,0.614362 0.53231,1.016 0.23984,0.401637 0.47026,0.830262 0.51204,0.9525 0.0418,0.122237 0.0927,0.236537 0.11319,0.253999 0.0594,0.05063 0.20479,0.453612 0.26352,0.730251 0.14528,0.6842 0.18521,0.964204 0.15549,1.090439 -0.0263,0.11152 0.11253,0.6744 0.49832,2.021061 0.01,0.03493 0.0661,0.174146 0.12467,0.309379 0.0586,0.135234 0.10648,0.270965 0.10648,0.301625 0,0.03066 0.054,0.05575 0.11996,0.05575 0.066,0 0.18284,0.05091 0.2597,0.113144 0.12312,0.0997 0.14709,0.207201 0.20173,0.904875 0.0341,0.435452 0.0887,0.801256 0.1213,0.812897 0.0326,0.01164 0.0593,0.05069 0.0593,0.08676 0,0.03608 0.1515,0.229232 0.33666,0.429231 0.30353,0.327848 0.83726,1.270204 0.96354,1.701215 0.023,0.07858 0.064,0.142874 0.091,0.142874 0.0271,0 0.0852,0.121444 0.12928,0.269875 0.0441,0.148432 0.10266,0.29845 0.13023,0.333375 0.0276,0.03493 0.10051,0.249238 0.16211,0.476251 0.0616,0.227012 0.13237,0.441324 0.15726,0.476249 0.0249,0.03493 0.0813,0.220663 0.12539,0.41275 0.0441,0.192088 0.10198,0.377825 0.12867,0.412751 0.0267,0.03493 0.0974,0.306387 0.15708,0.60325 0.0597,0.296862 0.13086,0.568324 0.15813,0.603249 0.0273,0.03493 0.0847,0.277813 0.12762,0.539751 0.0429,0.261937 0.10151,0.505534 0.13018,0.541326 0.0287,0.03579 0.0992,0.478703 0.15684,0.98425 0.0576,0.505545 0.13087,0.968792 0.16285,1.029437 0.032,0.06065 0.0581,0.166336 0.0581,0.234867 0,0.06853 0.26639,0.447539 0.59197,0.842237 0.57151,0.692823 0.79623,1.031419 0.92935,1.400257 0.0855,0.236862 0.33126,0.236862 0.49782,0 0.27681,-0.393672 0.41712,-0.755856 0.51042,-1.317625 0.054,-0.324832 0.24003,-0.367871 0.55426,-0.128195 0.28192,0.215024 0.47378,0.594634 0.51823,1.025298 l 0.0352,0.341148 0.22924,0.002 c 0.25318,0.0022 0.4515,0.119067 0.4515,0.265995 0,0.05239 0.0653,0.192119 0.14518,0.310499 0.0798,0.11838 0.18465,0.315249 0.23289,0.437486 0.0482,0.122238 0.11071,0.252806 0.13882,0.290152 0.0281,0.03735 0.097,0.265696 0.15305,0.507444 0.0561,0.24175 0.12452,0.46837 0.15213,0.5036 0.0276,0.0352 0.0863,0.26408 0.13043,0.50855 0.0441,0.24448 0.10101,0.47308 0.12641,0.50801 0.0254,0.0349 0.0949,0.39211 0.1545,0.79375 0.0596,0.40164 0.13181,0.77468 0.16051,0.82899 0.0287,0.0543 0.0889,0.4615 0.13382,0.90487 0.0449,0.44338 0.10162,0.80614 0.12604,0.80614 0.0244,0 0.0651,0.34725 0.0905,0.77167 0.0293,0.49021 0.0666,0.7392 0.10244,0.68263 0.031,-0.049 0.0568,-0.16883 0.0574,-0.26633 6.3e-4,-0.0975 0.0581,-0.23863 0.12797,-0.3136 0.0699,-0.075 0.127,-0.19798 0.127,-0.27334 0,-0.16332 0.17698,-0.53753 0.25421,-0.53753 0.0299,0 0.0272,-0.0929 -0.006,-0.20638 -0.0635,-0.21621 -0.0182,-0.68262 0.0662,-0.68262 0.027,0 0.0357,-0.07 0.0194,-0.1555 -0.034,-0.17779 0.1739,-0.67644 0.26959,-0.64667 0.0349,0.0109 0.11162,-0.18282 0.17043,-0.43041 0.0588,-0.2476 0.13578,-0.56447 0.17104,-0.70417 0.0353,-0.13971 0.08,-0.33059 0.0995,-0.42419 0.0195,-0.0936 0.08,-0.21471 0.13438,-0.26913 0.0544,-0.0544 0.12463,-0.29216 0.15602,-0.52831 0.0793,-0.59694 0.13289,-0.84213 0.18392,-0.84213 0.024,0 0.0792,-0.22145 0.12269,-0.492121 0.0435,-0.270668 0.12059,-0.573022 0.17139,-0.671896 0.0508,-0.09887 0.0923,-0.248482 0.0923,-0.332463 0,-0.204929 0.14206,-0.726016 0.19793,-0.726016 0.0245,0 0.0794,-0.207168 0.12186,-0.460375 0.0425,-0.253206 0.10497,-0.531812 0.13883,-0.619125 0.14992,-0.386612 0.23962,-0.857517 0.20178,-1.059232 -0.0305,-0.162366 -0.0144,-0.236595 0.0637,-0.293676 0.10072,-0.07365 0.11612,-0.161407 0.26952,-1.536342 0.0195,-0.174625 0.0597,-0.347315 0.0893,-0.383755 0.0296,-0.03644 0.0715,-0.265041 0.0931,-0.508 0.0215,-0.24296 0.0774,-0.556045 0.12415,-0.695745 0.0467,-0.1397 0.13443,-0.418306 0.19487,-0.619125 0.0639,-0.212173 0.14617,-0.365125 0.19646,-0.365125 0.0476,0 0.0866,-0.05444 0.0866,-0.120974 0,-0.08629 0.0767,-0.145461 0.26736,-0.206375 0.23419,-0.07481 0.27554,-0.116908 0.33337,-0.339401 0.0363,-0.1397 0.10174,-0.316415 0.1454,-0.3927 0.0437,-0.07629 0.0794,-0.186174 0.0794,-0.244198 0,-0.05802 0.0553,-0.183088 0.12278,-0.277922 0.0675,-0.09484 0.14275,-0.256408 0.16717,-0.359052 0.0244,-0.102646 0.10115,-0.313947 0.17051,-0.469559 0.0694,-0.155612 0.13098,-0.312775 0.13692,-0.34925 0.006,-0.03648 0.0883,-0.197417 0.18297,-0.357648 0.0947,-0.16023 0.17215,-0.324537 0.17215,-0.365125 0,-0.04059 0.0274,-0.0738 0.0609,-0.0738 0.0335,0 0.0946,-0.121443 0.13581,-0.269875 0.0955,-0.344145 0.30078,-0.799023 0.44663,-0.989519 0.0624,-0.08148 0.17055,-0.300827 0.24037,-0.487437 0.0698,-0.18661 0.25672,-0.54783 0.41534,-0.802712 0.15862,-0.254882 0.2884,-0.511296 0.2884,-0.569808 0,-0.05851 0.10001,-0.255004 0.22225,-0.436649 0.12223,-0.181644 0.22225,-0.33925 0.22225,-0.350236 0,-0.02447 0.20666,-0.274141 0.52387,-0.6329 0.13097,-0.148124 0.23813,-0.313333 0.23813,-0.367133 0,-0.139855 0.84698,-0.879116 1.79499,-1.566699 0.11733,-0.0851 0.28294,-0.253364 0.36804,-0.373931 0.29016,-0.41112 0.70018,-0.800184 1.80572,-1.713436 0.0699,-0.0577 0.38681,-0.319788 0.70436,-0.582413 0.31755,-0.262626 0.67213,-0.548939 0.78796,-0.636252 0.11583,-0.08731 0.38465,-0.293615 0.59739,-0.458451 0.21273,-0.164835 0.44393,-0.342983 0.51378,-0.395884 0.0698,-0.0529 0.2413,-0.185143 0.381,-0.293872 0.1397,-0.108728 0.38259,-0.272667 0.53975,-0.364308 0.31128,-0.181508 0.69314,-0.424474 0.79375,-0.505048 0.13518,-0.108256 1.48616,-0.839937 1.55087,-0.839937 0.0376,0 0.0684,-0.02336 0.0684,-0.0519 0,-0.02855 0.16431,-0.103191 0.36513,-0.165875 0.20081,-0.06268 0.3937,-0.136667 0.42862,-0.164405 0.15036,-0.119415 0.63849,-0.134863 0.92141,-0.02916 0.1568,0.05858 0.47552,0.130235 0.70826,0.159228 0.47315,0.05894 0.62876,0.127647 1.13258,0.500085 0.33788,0.249764 0.5133,0.407217 2.10478,1.889166 0.81141,0.755561 1.45122,1.573434 1.45122,1.855086 0,0.09598 0.042,0.229973 0.0932,0.297767 0.0513,0.06779 0.0941,0.160361 0.0952,0.205704 0.002,0.07544 0.0519,0.185757 0.33691,0.743057 0.24422,0.477494 0.39015,0.854738 0.46672,1.2065 0.0962,0.441809 0.11238,1.360285 0.0297,1.68275 -0.13421,0.523446 -0.13785,0.5715 -0.0433,0.5715 0.0506,0 0.12971,-0.03778 0.17588,-0.08395 0.0462,-0.04617 0.21967,-0.13578 0.38553,-0.199127 0.16588,-0.06335 0.30159,-0.139869 0.30159,-0.17005 0,-0.03018 0.0358,-0.05487 0.0796,-0.05487 0.0438,0 0.28575,-0.100012 0.53773,-0.22225 0.25197,-0.122237 0.48762,-0.22225 0.52365,-0.22225 0.036,0 0.0655,-0.02572 0.0655,-0.05717 0,-0.03144 0.15002,-0.09181 0.33338,-0.134147 0.18335,-0.04234 0.39367,-0.114666 0.46736,-0.160727 0.0737,-0.04606 0.3023,-0.13202 0.508,-0.191019 0.20571,-0.059 0.40259,-0.129301 0.43751,-0.156224 0.0349,-0.02692 0.23495,-0.08372 0.4445,-0.126217 0.20955,-0.04249 0.40958,-0.100225 0.4445,-0.128289 0.0349,-0.02806 0.29924,-0.08706 0.58738,-0.131105 0.3416,-0.05222 0.52387,-0.108358 0.52387,-0.161358 0,-0.121171 0.38134,-0.207391 1.30175,-0.29432 0.95228,-0.08994 1.7395,-0.08385 2.32197,0.01795 0.22469,0.03927 0.65536,0.09666 0.95702,0.127525 0.50649,0.05183 1.84545,0.353997 2.24975,0.507714 0.2365,0.08992 0.7923,0.540088 0.88324,0.715389 0.18436,0.355343 0.22011,0.547592 0.12036,0.647334 -0.12106,0.121063 -0.15931,0.120234 -0.43105,-0.0094 -0.20673,-0.09858 -0.29557,-0.09815 -1.35153,0.0066 -1.5922,0.157947 -2.25011,0.342595 -2.81301,0.789493 -0.12224,0.09705 -0.36512,0.258601 -0.53975,0.35901 -0.17462,0.100409 -0.33179,0.199843 -0.34925,0.220965 -0.0175,0.02112 -0.13176,0.0752 -0.254,0.120169 -0.45933,0.168984 -1.02669,0.471162 -1.19301,0.635391 -0.4185,0.413272 -1.42185,1.18064 -1.79149,1.370156 -0.12224,0.06267 -0.23654,0.13364 -0.254,0.157709 -0.0175,0.02407 -0.18393,0.125815 -0.36994,0.226102 -0.186,0.100288 -0.51128,0.348071 -0.72284,0.550629 -0.25348,0.242706 -0.4374,0.368287 -0.53937,0.368287 -0.0851,0 -0.28845,0.09201 -0.45191,0.204474 -0.16345,0.112459 -0.30668,0.195551 -0.31828,0.184648 -0.0116,-0.0109 -0.10505,0.05499 -0.20767,0.146424 -0.10262,0.09144 -0.28601,0.213661 -0.40753,0.271612 -0.12153,0.05795 -0.22096,0.128647 -0.22096,0.157103 0,0.02846 -0.031,0.05174 -0.069,0.05174 -0.038,0 -0.18797,0.08173 -0.33338,0.181622 -0.57865,0.397519 -1.01226,0.680854 -1.19949,0.783787 -0.1082,0.05949 -0.21353,0.134041 -0.23406,0.165676 -0.0205,0.03164 -0.14449,0.09586 -0.27545,0.142723 -0.13097,0.04686 -0.23813,0.108502 -0.23813,0.136976 0,0.02847 -0.10001,0.09946 -0.22225,0.157755 -0.12224,0.05829 -0.22225,0.127971 -0.22225,0.154845 0,0.02687 -0.0941,0.06652 -0.20921,0.08811 -0.11506,0.02159 -0.27936,0.09442 -0.36512,0.161843 -0.58855,0.462764 -0.66513,0.50866 -0.79449,0.476191 -0.10157,-0.02549 -0.15419,0.0061 -0.20833,0.12488 -0.0462,0.101278 -0.14383,0.173265 -0.26911,0.19832 -0.10815,0.02163 -0.21054,0.07552 -0.22751,0.119739 -0.017,0.04422 -0.11453,0.115065 -0.21679,0.157424 -0.10227,0.04236 -0.18594,0.09991 -0.18594,0.12789 0,0.08409 -0.44167,0.203079 -0.62388,0.168072 -0.18423,-0.0354 -0.14862,-0.06233 -0.96538,0.730429 -0.26291,0.255183 -0.56064,0.517801 -0.66162,0.583595 -0.10098,0.06579 -0.36378,0.28725 -0.58401,0.492125 -0.22022,0.204875 -0.44399,0.372499 -0.49726,0.372499 -0.0533,0 -0.0968,0.04186 -0.0968,0.09302 0,0.05116 -0.0617,0.126026 -0.13707,0.166373 -0.0754,0.04035 -0.22541,0.153002 -0.33338,0.250345 -0.33986,0.30642 -0.82729,0.696765 -0.87005,0.696765 -0.0226,0 -0.0792,0.09287 -0.12582,0.206375 -0.0912,0.222212 -0.13864,0.292497 -0.3593,0.532807 -0.14417,0.156996 -0.19688,0.467318 -0.0794,0.467318 0.0973,0 0.0754,0.470606 -0.0314,0.675367 -0.0522,0.100036 -0.0957,0.224746 -0.0967,0.277133 -10e-4,0.05239 -0.0855,0.238125 -0.18762,0.41275 -0.10215,0.174625 -0.25006,0.438944 -0.32867,0.587375 -0.0786,0.148432 -0.16294,0.269875 -0.18739,0.269875 -0.0245,0 -0.0958,0.142875 -0.15864,0.3175 -0.0628,0.174625 -0.13364,0.317502 -0.15743,0.317502 -0.0238,0 -0.0814,0.0929 -0.12798,0.20637 -0.0466,0.11351 -0.13524,0.26118 -0.19698,0.32817 -0.0617,0.067 -0.26138,0.42417 -0.44365,0.79375 -0.18227,0.36958 -0.38285,0.7093 -0.44573,0.75493 -0.0629,0.0456 -0.11432,0.11966 -0.11432,0.16449 0,0.1231 -0.3722,0.8502 -0.63721,1.24479 -0.30291,0.45103 -0.64252,1.13317 -0.81486,1.63674 -0.17076,0.49897 -0.23612,0.61557 -0.5323,0.94947 -0.13097,0.14765 -0.23812,0.29082 -0.23812,0.31815 0,0.0273 -0.10872,0.1637 -0.24161,0.30304 -0.13808,0.1448 -0.27718,0.37579 -0.32465,0.5391 -0.0728,0.25046 -0.17991,0.4764 -0.4983,1.051 -0.0442,0.0797 -0.10413,0.27246 -0.13325,0.42834 -0.0291,0.15588 -0.0862,0.32257 -0.1268,0.37042 -0.0406,0.0478 -0.19788,0.27579 -0.34945,0.50653 -0.23719,0.36109 -0.2804,0.47931 -0.31002,0.8484 -0.0226,0.28211 -0.0768,0.48621 -0.15815,0.59646 -0.068,0.0922 -0.16053,0.2819 -0.20552,0.4216 -0.045,0.1397 -0.10386,0.28258 -0.13082,0.3175 -0.027,0.0349 -0.0831,0.19209 -0.12483,0.34925 -0.0417,0.15716 -0.1445,0.43662 -0.22846,0.62101 -0.0839,0.18439 -0.15264,0.36298 -0.15264,0.39687 0,0.0339 -0.0262,0.0616 -0.0582,0.0616 -0.032,0 -0.10915,0.13574 -0.17137,0.30163 -0.0622,0.16589 -0.13026,0.31591 -0.15121,0.33337 -0.021,0.0175 -0.0748,0.16034 -0.11962,0.3175 -0.0448,0.15717 -0.1506,0.434 -0.23504,0.6152 -0.0844,0.18119 -0.15352,0.35979 -0.15352,0.39687 0,0.0371 -0.0286,0.0674 -0.0635,0.0674 -0.0349,0 -0.0643,0.0357 -0.0653,0.0794 -9.5e-4,0.0437 -0.0867,0.19162 -0.1905,0.32881 -0.1038,0.1372 -0.18873,0.28517 -0.18873,0.32884 0,0.0437 -0.0373,0.11717 -0.0829,0.16332 -0.0456,0.0461 -0.18099,0.24845 -0.30091,0.44956 -0.1199,0.20111 -0.26834,0.38163 -0.32985,0.40116 -0.0615,0.0195 -0.11185,0.061 -0.11185,0.0922 0,0.0312 -0.0721,0.12351 -0.16023,0.20522 -0.12042,0.11166 -0.16901,0.23459 -0.19552,0.4947 -0.0194,0.19036 -0.0584,0.40327 -0.0868,0.47312 -0.0283,0.0699 -0.0834,0.24525 -0.12241,0.38978 -0.039,0.14453 -0.19804,0.43028 -0.3534,0.635 -0.47163,0.62144 -1.39235,1.48707 -1.71029,1.60795 -0.0915,0.0348 -0.16141,0.0853 -0.15543,0.11225 0.006,0.027 -0.0116,0.12915 -0.039,0.2271 -0.0766,0.27314 0.18242,1.03363 0.39923,1.1723 0.0933,0.0597 0.20736,0.14456 0.25351,0.18867 0.12047,0.11514 0.90611,0.1055 1.06283,-0.013 0.0678,-0.0513 0.17272,-0.0941 0.23317,-0.0953 0.10797,-0.002 0.18814,-0.19376 0.1601,-0.38302 -0.008,-0.0524 0.008,-0.23015 0.0362,-0.39502 0.0405,-0.24158 0.1009,-0.34309 0.311,-0.52294 0.38834,-0.33239 0.38229,-0.33203 3.05759,-0.18499 0.37965,0.0209 0.70826,0.0132 0.73025,-0.0169 0.0551,-0.0756 0.25237,-0.19717 0.51415,-0.31677 0.12109,-0.0553 0.27826,-0.15293 0.34925,-0.21691 0.39287,-0.35408 0.50169,-0.44194 0.54736,-0.44194 0.0278,0 0.17403,-0.12179 0.32503,-0.27065 0.16848,-0.16609 0.38458,-0.30342 0.55936,-0.35544 0.15665,-0.0466 0.33444,-0.11058 0.39508,-0.1421 0.0606,-0.0315 0.23756,-0.0573 0.39313,-0.0573 0.15558,0 0.30053,-0.0286 0.32211,-0.0635 0.0216,-0.0349 0.0947,-0.0635 0.1625,-0.0635 0.0678,0 0.12325,-0.0373 0.12325,-0.0828 0,-0.0913 0.7819,-0.8128 0.9539,-0.88022 0.0594,-0.0233 0.1253,-0.0876 0.14652,-0.14288 0.0212,-0.0553 0.10924,-0.10056 0.19559,-0.10056 0.0863,0 0.17466,-0.0286 0.19624,-0.0635 0.0216,-0.0349 0.11041,-0.0635 0.1974,-0.0635 0.14948,0 0.46964,-0.13479 0.62214,-0.26192 0.1363,-0.11363 0.64177,-0.43429 0.68638,-0.43543 0.0388,-9.8e-4 0.42478,-0.23057 0.74833,-0.44511 0.0524,-0.0347 0.23813,-0.15377 0.41275,-0.26453 0.17463,-0.11076 0.4704,-0.30384 0.65726,-0.42907 0.18687,-0.12523 0.41547,-0.27595 0.508,-0.33493 0.0925,-0.059 0.20762,-0.1421 0.25575,-0.18472 0.0481,-0.0426 0.23387,-0.0893 0.41275,-0.10378 0.3557,-0.0288 0.67449,-0.12911 0.67449,-0.21234 0,-0.0291 0.10716,-0.072 0.23813,-0.0953 0.20559,-0.0366 0.65303,-0.27254 0.88066,-0.46443 0.18119,-0.15275 0.56611,-0.19632 1.05609,-0.11954 0.27066,0.0424 0.49212,0.0994 0.49212,0.1266 0,0.0272 0.0563,0.0495 0.12507,0.0495 0.16051,0 0.54208,0.21415 0.72053,0.40438 0.21133,0.22527 0.35503,0.27966 0.87085,0.32961 0.26086,0.0253 0.4895,0.0692 0.50806,0.0977 0.0381,0.0584 0.7262,0.24785 0.90033,0.24785 0.0625,0 0.11366,0.0228 0.11366,0.0507 0,0.0279 0.093,0.0844 0.20665,0.12547 0.24762,0.0895 0.64016,0.45815 0.86046,0.80803 0.25681,0.40784 0.94003,1.04775 1.11867,1.04775 0.15485,0 0.77347,0.54503 1.00905,0.889 0.31008,0.45278 0.55167,0.86201 0.55167,0.93449 0,0.0448 0.0255,0.0815 0.0566,0.0815 0.0311,0 0.0747,0.0722 0.0969,0.16044 0.0221,0.0882 0.10723,0.30969 0.18908,0.49212 0.0818,0.18243 0.16909,0.41712 0.19389,0.52155 0.0248,0.10442 0.0746,0.20811 0.11072,0.23042 0.0361,0.0223 0.07,0.2512 0.0753,0.50864 0.007,0.33358 0.0322,0.46351 0.0881,0.4522 0.0431,-0.009 0.0784,0.0108 0.0784,0.0434 0,0.0326 0.0546,0.0765 0.12124,0.0977 0.10296,0.0327 0.39907,0.36368 0.79693,0.89083 0.0527,0.0699 0.1821,0.2413 0.28752,0.381 0.10543,0.1397 0.23446,0.30982 0.28674,0.37804 0.0523,0.0682 0.0951,0.15119 0.0951,0.18437 0,0.0332 0.0716,0.21171 0.15914,0.39673 0.18236,0.38549 0.26919,0.60382 0.27233,0.68476 0.001,0.031 0.0286,0.0739 0.061,0.0952 0.0323,0.0214 0.10999,0.18172 0.17257,0.35635 0.0626,0.17462 0.16964,0.47392 0.23794,0.6651 0.0683,0.19117 0.1931,0.41653 0.27735,0.50078 0.13956,0.13956 0.15319,0.2048 0.15319,0.73331 0,0.55189 -0.009,0.59146 -0.19199,0.81303 -0.10558,0.1281 -0.24846,0.25084 -0.3175,0.27275 -0.14571,0.0463 -0.17134,0.28528 -0.0306,0.28528 0.13206,0 0.32445,0.44852 0.44145,1.02919 0.11041,0.54799 0.13274,1.60923 0.0351,1.66956 -0.0349,0.0216 -0.0635,0.23951 -0.0635,0.48428 0,0.41613 -0.008,0.44241 -0.127,0.40472 -0.12106,-0.0384 -0.12706,-0.0111 -0.12826,0.58309 -0.001,0.67883 -0.0971,1.48648 -0.18273,1.5414 -0.0296,0.019 -0.1021,0.24805 -0.16113,0.50905 -0.059,0.261 -0.13333,0.50585 -0.16509,0.54413 -0.0318,0.0383 -0.0901,0.28192 -0.12973,0.54145 -0.0396,0.25954 -0.10248,0.52903 -0.13976,0.59888 -0.0373,0.0699 -0.0767,0.35396 -0.0876,0.63135 -0.0109,0.2774 -0.0556,0.60602 -0.0993,0.73025 -0.0437,0.12425 -0.0824,0.25447 -0.0861,0.2894 -0.004,0.0349 -0.0685,0.20188 -0.14404,0.37102 -0.0755,0.16913 -0.15468,0.37679 -0.17593,0.46146 -0.054,0.21515 -0.56745,0.76971 -0.84267,0.91014 -0.12617,0.0644 -0.41514,0.33663 -0.64215,0.60502 -0.22701,0.26838 -0.49847,0.53198 -0.60325,0.58579 -0.43325,0.22246 -0.61763,0.41972 -0.84181,0.90062 -0.12407,0.26617 -0.31647,0.57828 -0.42755,0.69357 -0.18259,0.18951 -0.21018,0.19971 -0.28774,0.10625 -0.0724,-0.0873 -0.0703,-0.13475 0.0139,-0.30487 0.0548,-0.11082 0.1338,-0.32648 0.17547,-0.47923 0.13492,-0.49456 0.1771,-2.06562 0.0633,-2.35752 -0.007,-0.0175 -0.008,-0.055 -0.003,-0.0834 0.005,-0.0284 -0.0233,-0.17119 -0.0626,-0.31725 -0.15818,-0.58745 -0.19405,-0.85635 -0.12032,-0.90191 0.0363,-0.0224 -0.0765,-0.16794 -0.25385,-0.32734 -0.17554,-0.15783 -0.30644,-0.30755 -0.29088,-0.33273 0.0156,-0.0252 0.0351,-0.17707 0.0434,-0.33756 0.008,-0.1605 0.0599,-0.37849 0.11466,-0.48444 0.0547,-0.10594 0.16412,-0.31814 0.24304,-0.47154 0.0789,-0.1534 0.30026,-0.45994 0.49186,-0.6812 0.19161,-0.22125 0.33901,-0.41166 0.32755,-0.42311 -0.0188,-0.0188 -0.44771,-0.11484 -0.7724,-0.17296 -0.46589,-0.0834 -0.66675,-0.18147 -0.66675,-0.32561 0,-0.0446 0.20285,-0.29826 0.45078,-0.56373 0.24792,-0.26547 0.43518,-0.48268 0.41614,-0.48268 -0.019,0 0.0455,-0.15228 0.14337,-0.33839 0.0979,-0.18612 0.19894,-0.45043 0.22454,-0.58738 0.0256,-0.13694 0.075,-0.28345 0.10982,-0.32558 0.0348,-0.0421 0.0461,-0.10444 0.025,-0.13848 -0.021,-0.034 -0.0148,-0.0764 0.0138,-0.0941 0.0978,-0.0605 -0.0312,-0.95864 -0.17047,-1.18713 -0.15362,-0.252 -0.17228,-0.55367 -0.045,-0.72773 0.11486,-0.15707 0.0468,-0.33522 -0.23616,-0.61818 -0.12036,-0.12035 -0.23733,-0.27711 -0.25994,-0.34834 -0.0226,-0.0712 -0.0929,-0.14306 -0.15622,-0.15962 -0.0633,-0.0166 -0.18233,-0.16966 -0.26448,-0.34023 -0.0821,-0.17057 -0.17942,-0.34113 -0.21615,-0.37902 -0.0367,-0.0379 -0.12395,-0.14822 -0.1938,-0.24516 -0.0699,-0.0969 -0.15718,-0.20882 -0.19406,-0.24861 -0.0369,-0.0398 -0.12163,-0.16521 -0.18831,-0.27871 -0.0667,-0.11351 -0.14367,-0.20638 -0.17107,-0.20638 -0.0274,0 -0.0498,-0.0723 -0.0498,-0.16074 0,-0.0884 -0.0402,-0.17619 -0.0894,-0.19506 -0.11274,-0.0433 -0.26285,-0.39691 -0.2398,-0.56495 0.0126,-0.0919 0.002,-0.10394 -0.0393,-0.0435 -0.059,0.0868 -0.19247,-0.17948 -0.42365,-0.84548 -0.0606,-0.17463 -0.13657,-0.37465 -0.16878,-0.4445 -0.0322,-0.0699 -0.0689,-0.22702 -0.0816,-0.34925 -0.0505,-0.48742 -0.11967,-0.82109 -0.1644,-0.79344 -0.0455,0.0281 -0.14072,-0.27639 -0.22621,-0.7232 -0.0226,-0.11818 -0.0945,-0.3325 -0.1598,-0.47625 -0.0805,-0.17729 -0.11986,-0.41455 -0.12232,-0.73761 -0.002,-0.26194 -0.047,-0.66199 -0.1,-0.889 -0.053,-0.22702 -0.12153,-0.52871 -0.15231,-0.67043 -0.0884,-0.40702 -0.20019,-0.59937 -0.37362,-0.6429 -0.13691,-0.0344 -0.51561,-0.28133 -0.82458,-0.53777 -0.0554,-0.046 -0.10068,-0.0491 -0.127,-0.009 -0.0225,0.0345 -0.11622,0.0885 -0.20826,0.1199 -0.0921,0.0314 -0.23492,0.10644 -0.3175,0.1667 -0.0826,0.0602 -0.30732,0.21554 -0.49941,0.34508 -0.19208,0.12954 -0.38258,0.26597 -0.42331,0.30319 -0.0407,0.0372 -0.22018,0.1534 -0.39876,0.25817 -0.17858,0.10478 -0.51595,0.32623 -0.74969,0.49213 -0.23375,0.16589 -0.44955,0.30162 -0.47955,0.30162 -0.03,0 -0.18501,0.10716 -0.34445,0.23813 -0.32309,0.26541 -0.63777,0.46644 -0.96751,0.6181 -0.12102,0.0557 -0.23532,0.12246 -0.254,0.14844 -0.0479,0.0666 -0.63725,0.43405 -0.82773,0.51606 -0.22092,0.0951 -0.56895,0.30916 -0.67477,0.41497 -0.0487,0.0487 -0.18827,0.12462 -0.31014,0.16869 -0.12187,0.0441 -0.22159,0.10296 -0.22159,0.13087 0,0.0279 -0.0462,0.0507 -0.10274,0.0507 -0.0565,0 -0.20037,0.0857 -0.31971,0.1905 -0.11933,0.10477 -0.26873,0.1905 -0.332,0.1905 -0.0633,0 -0.34894,0.1143 -0.63481,0.254 -0.28587,0.1397 -0.58316,0.25426 -0.66063,0.25458 -0.0775,3.2e-4 -0.45954,0.1546 -0.84905,0.34285 -0.38951,0.18824 -0.79863,0.36213 -0.90916,0.3864 -0.11054,0.0243 -0.21639,0.0843 -0.23523,0.13341 -0.0188,0.0491 -0.0669,0.0899 -0.10684,0.0907 -0.0399,7.7e-4 -0.14401,0.0573 -0.23133,0.12559 -0.0918,0.0718 -0.25884,0.12477 -0.39596,0.12558 -0.25642,0.002 -0.76037,0.10809 -0.97647,0.20648 -0.0738,0.0336 -0.3083,0.0512 -0.52111,0.0391 -0.34302,-0.0195 -0.39086,-0.007 -0.42163,0.10505 -0.04,0.14648 -0.3847,0.53975 -0.47305,0.53975 -0.0327,0 -0.14045,0.0809 -0.23938,0.17986 -0.14923,0.14923 -0.25223,0.18663 -0.60465,0.21954 -0.23363,0.0218 -0.47635,0.0672 -0.53939,0.10094 -0.12719,0.068 -2.28379,0.21898 -2.36968,0.1659 -0.0298,-0.0184 -0.1882,-0.0585 -0.35198,-0.0891 -0.24934,-0.0466 -0.33295,-0.0349 -0.51388,0.0719 -0.24551,0.14485 -0.33982,0.28833 -0.33982,0.51699 0,0.0932 -0.0653,0.20964 -0.15875,0.28318 -0.0873,0.0687 -0.15875,0.18567 -0.15875,0.25998 0,0.0878 -0.0611,0.15999 -0.17462,0.20623 -0.81443,0.33175 -1.00163,0.48975 -1.05981,0.89451 -0.0238,0.1659 -0.0656,0.30163 -0.0929,0.30163 -0.0272,0 -0.0847,0.15716 -0.12766,0.34925 -0.043,0.19209 -0.10005,0.34925 -0.12679,0.34925 -0.0267,0 -0.10205,0.15716 -0.16735,0.34925 -0.0653,0.19209 -0.13932,0.34925 -0.16451,0.34925 -0.0252,0 -0.0794,0.16431 -0.12036,0.36512 -0.041,0.20082 -0.0974,0.42228 -0.12521,0.49213 -0.0278,0.0699 -0.099,0.29845 -0.15819,0.508 -0.0592,0.20955 -0.16203,0.50213 -0.2286,0.65018 -0.0666,0.14805 -0.12104,0.31236 -0.12104,0.36513 0,0.0528 -0.0264,0.0959 -0.0586,0.0959 -0.0322,0 -0.0907,0.0975 -0.13007,0.21664 -0.0393,0.11915 -0.21277,0.49777 -0.38544,0.84137 -0.17267,0.34361 -0.31416,0.66045 -0.31443,0.70411 0,0.0437 -0.026,0.0794 -0.0571,0.0794 -0.0311,0 -0.0753,0.0786 -0.098,0.17463 -0.0456,0.192 -0.42177,0.97995 -0.49375,1.03409 -0.0248,0.0187 -0.0914,0.13299 -0.1478,0.254 -0.0565,0.12102 -0.18422,0.36291 -0.28392,0.53753 -0.0997,0.17463 -0.22917,0.42466 -0.28772,0.55563 -0.0585,0.13096 -0.12844,0.23812 -0.15534,0.23812 -0.0269,0 -0.0865,0.0929 -0.13238,0.20638 -0.0459,0.1135 -0.10106,0.22066 -0.12256,0.23812 -0.0215,0.0175 -0.14973,0.23137 -0.28496,0.47534 -0.13522,0.24398 -0.27003,0.47258 -0.29956,0.508 -0.0295,0.0354 -0.13393,0.193 -0.232,0.35016 -0.45162,0.72371 -0.58098,0.92549 -0.63359,0.98825 -0.0311,0.0371 -0.0935,0.13714 -0.13863,0.22225 -0.0741,0.13971 -0.36311,0.59856 -0.81747,1.29775 -0.0908,0.1397 -0.18229,0.26829 -0.20335,0.28575 -0.0211,0.0175 -0.0755,0.10319 -0.12099,0.1905 -0.0455,0.0873 -0.13619,0.23019 -0.20158,0.3175 -0.22633,0.30221 -0.74803,0.98454 -0.80418,1.05175 -0.031,0.0371 -0.0886,0.12776 -0.12806,0.20142 -0.0394,0.0737 -0.11101,0.17327 -0.1591,0.22136 -0.0481,0.0481 -0.13474,0.1789 -0.19255,0.2907 -0.0578,0.1118 -0.13295,0.20327 -0.16698,0.20327 -0.034,0 -0.0619,0.0302 -0.0619,0.0671 0,0.0369 -0.13573,0.2012 -0.30163,0.36513 -0.56522,0.55852 -0.86638,1.01613 -0.9379,1.42517 -0.0229,0.13096 -0.0643,0.23812 -0.092,0.23812 -0.0277,0 -0.0842,0.13411 -0.12542,0.29802 -0.0413,0.16392 -0.12831,0.41495 -0.1934,0.55783 -0.0651,0.1429 -0.13783,0.3374 -0.16163,0.43223 -0.0238,0.0948 -0.0668,0.17242 -0.0956,0.17242 -0.0288,0 -0.0697,0.0546 -0.0909,0.12142 -0.0341,0.10742 -0.26121,0.43105 -0.49314,0.70268 -0.10059,0.11782 -0.10917,1.15129 -0.0106,1.27758 0.0382,0.049 0.10625,0.2248 0.15113,0.3907 0.0449,0.16589 0.10425,0.30162 0.13193,0.30162 0.0932,0 0.18479,0.40984 0.17746,0.79375 -0.004,0.20955 0.0135,0.52388 0.0388,0.6985 0.0398,0.27449 0.0256,0.34761 -0.10508,0.53975 -0.0831,0.12224 -0.18885,0.3937 -0.23493,0.60325 -0.0461,0.20955 -0.10925,0.46385 -0.14041,0.5651 -0.0312,0.10126 -0.0561,0.38701 -0.0555,0.635 0.002,0.86446 -0.20005,4.32523 -0.25911,4.43466 -0.0327,0.0606 -0.0602,0.3464 -0.0611,0.635 -0.002,0.71341 -0.11006,1.77308 -0.18839,1.85142 -0.0352,0.0352 -0.0649,0.27971 -0.0659,0.5434 -0.001,0.26368 -0.0312,0.69373 -0.0671,0.95567 -0.0358,0.26194 -0.0755,0.75892 -0.0883,1.10439 -0.0127,0.34548 -0.0495,0.64551 -0.0818,0.66675 -0.0323,0.0212 -0.10263,0.35294 -0.15637,0.73711 -0.0537,0.38418 -0.11657,0.76994 -0.13964,0.85725 -0.0231,0.0873 -0.0891,0.51594 -0.14678,0.9525 -0.0577,0.43656 -0.12287,0.80804 -0.14495,0.8255 -0.0221,0.0175 -0.09,0.38845 -0.15089,0.82442 -0.0609,0.43596 -0.13355,0.82172 -0.16141,0.85725 -0.0279,0.0355 -0.0872,0.26461 -0.13176,0.50908 -0.0446,0.24448 -0.0998,0.45879 -0.12259,0.47625 -0.0228,0.0175 -0.0765,0.16034 -0.11938,0.3175 -0.0727,0.26652 -0.37944,0.9447 -0.45956,1.016 -0.0196,0.0175 -0.0726,0.2032 -0.11773,0.41275 -0.0451,0.20955 -0.13629,0.47019 -0.20257,0.57919 -0.0663,0.109 -0.13849,0.37021 -0.16046,0.58047 -0.0419,0.40059 0.0732,1.79686 0.16612,2.01534 0.0297,0.0698 0.10378,0.51276 0.16463,0.98425 0.0609,0.47149 0.12929,0.87154 0.1521,0.889 0.0228,0.0175 0.0683,0.17463 0.10103,0.34925 0.0451,0.24073 0.0848,0.31336 0.164,0.30038 0.10764,-0.0177 0.11505,0.0751 0.20173,2.5261 0.009,0.26235 0.0392,0.51306 0.0664,0.55715 0.0567,0.0917 0.1182,1.1638 0.10462,1.82337 -0.005,0.24448 -0.0164,0.85884 -0.0253,1.36525 -0.0343,1.95585 -0.0491,2.32901 -0.10551,2.667 -0.0321,0.19209 -0.0624,0.44926 -0.0675,0.5715 -0.0226,0.54767 -0.19531,1.79511 -0.28276,2.04297 -0.12198,0.34574 -0.41164,0.96329 -0.4714,1.00503 -0.0875,0.0611 -0.19147,0.3105 -0.19147,0.45938 0,0.0826 -0.0292,0.17939 -0.0648,0.21505 -0.0357,0.0357 -0.0815,0.24854 -0.10191,0.47307 -0.0324,0.35699 -0.0163,0.44928 0.12833,0.73497 0.091,0.1797 0.1654,0.35829 0.1654,0.39688 0,0.0386 0.0233,0.0701 0.0519,0.0701 0.0285,0 0.10319,0.16431 0.16588,0.36513 0.0627,0.20082 0.1349,0.3937 0.16049,0.42862 0.0256,0.0349 0.0846,0.20638 0.13105,0.381 0.0465,0.17463 0.10338,0.33179 0.12643,0.34925 0.023,0.0175 0.0914,0.23123 0.15197,0.47504 0.0605,0.24381 0.13223,0.47241 0.15932,0.508 0.0271,0.0356 0.086,0.20044 0.13086,0.36634 0.0449,0.16589 0.1041,0.30162 0.13159,0.30162 0.0275,0 0.0813,0.14598 0.11955,0.32438 0.0383,0.17841 0.12672,0.39703 0.19655,0.48582 0.10932,0.13897 0.12115,0.21842 0.085,0.57093 -0.0296,0.28871 -0.0196,0.42332 0.0339,0.45638 0.0417,0.0258 0.0904,0.21678 0.10826,0.42442 0.0411,0.47902 0.0521,0.54951 0.0979,0.62732 0.0206,0.0349 0.0741,0.39211 0.1191,0.79375 0.045,0.40164 0.10592,0.7574 0.13547,0.79058 0.0296,0.0332 0.0537,0.15293 0.0537,0.26612 0,0.11319 0.0305,0.22468 0.0679,0.24775 0.0701,0.0433 0.0461,0.48215 -0.0717,1.31412 -0.0401,0.28325 -0.0384,0.52656 0.005,0.72005 0.036,0.16072 0.0799,0.43653 0.0974,0.61288 0.0175,0.17636 0.0442,0.34052 0.0592,0.3648 0.015,0.0243 0.0438,0.14174 0.0641,0.26105 0.0202,0.1193 0.051,0.2639 0.0684,0.32133 0.0296,0.0978 -0.11997,0.31066 -0.21534,0.30639 -0.0237,-0.001 -0.10024,-0.0343 -0.17009,-0.0738 z M 81.409472,97.08008 c 0.14798,-0.22272 0.18974,-0.34316 0.15962,-0.46038 -0.10457,-0.40702 -0.0988,-0.64427 0.0264,-1.08748 0.0728,-0.25755 0.18091,-0.50399 0.2403,-0.54764 0.0594,-0.0437 0.0838,-0.0794 0.0543,-0.0794 -0.12573,0 0.18633,-0.25047 0.35942,-0.28849 0.17883,-0.0393 0.18732,-0.0549 0.14695,-0.2701 -0.0441,-0.235 -0.20554,-0.48406 -0.40381,-0.62294 -0.062,-0.0434 -0.18521,-0.18826 -0.27378,-0.32184 -0.45396,-0.68463 -0.6396,-0.99376 -0.72702,-1.21063 -0.0529,-0.13132 -0.13413,-0.32448 -0.18046,-0.42925 -0.0463,-0.10478 -0.10466,-0.26194 -0.12964,-0.34925 -0.025,-0.0873 -0.083,-0.21849 -0.12889,-0.29149 -0.10345,-0.16454 -0.22805,-0.61687 -0.23474,-0.85221 -0.007,-0.24569 0.37222,-0.9733 0.67872,-1.30232 0.18277,-0.19619 0.33909,-0.29568 0.54668,-0.34791 0.15989,-0.0402 0.37331,-0.13902 0.47427,-0.21952 l 0.18356,-0.14636 -0.17265,-0.24913 c -0.095,-0.13703 -0.17265,-0.27342 -0.17265,-0.3031 0,-0.0297 -0.0749,-0.21229 -0.16645,-0.4058 -0.0915,-0.19351 -0.18155,-0.46773 -0.20002,-0.60938 -0.0185,-0.14164 -0.0571,-0.27306 -0.0859,-0.29204 -0.0288,-0.019 -0.079,-0.22236 -0.1115,-0.45197 -0.0325,-0.22959 -0.10647,-0.50901 -0.16434,-0.62092 -0.0702,-0.13579 -0.0847,-0.22836 -0.0434,-0.27829 0.034,-0.0412 0.0819,-0.18237 0.10648,-0.31383 0.0246,-0.13146 0.0914,-0.26885 0.14855,-0.30531 0.076,-0.0485 0.0825,-0.0753 0.0245,-0.0997 -0.17043,-0.0716 -0.0758,-0.2059 0.15875,-0.22531 0.18256,-0.0151 0.24242,-0.0497 0.25653,-0.1482 0.0196,-0.13718 0.22431,-0.24755 0.58485,-0.31541 0.43055,-0.081 0.41127,-0.052 0.43205,-0.6509 0.0106,-0.30591 0.0328,-0.60244 0.0492,-0.65895 0.0206,-0.0707 -0.035,-0.12862 -0.17805,-0.18565 -0.47387,-0.18885 -0.97173,-0.91207 -1.04459,-1.51743 -0.0144,-0.12007 0.0383,-0.4627 0.11718,-0.76139 0.13059,-0.49433 0.17574,-0.57645 0.50307,-0.91515 0.19778,-0.20464 0.43998,-0.42481 0.53821,-0.48925 0.15227,-0.0999 0.17943,-0.16144 0.18425,-0.41761 0.003,-0.18109 0.0375,-0.31106 0.0858,-0.32716 0.0611,-0.0204 0.0627,-0.0477 0.007,-0.11509 -0.0949,-0.1143 -0.0229,-0.51014 0.10135,-0.55783 0.0513,-0.0197 0.15535,-0.16344 0.23112,-0.31941 0.0878,-0.18068 0.19154,-0.29708 0.28593,-0.32077 0.0815,-0.0205 0.14815,-0.0767 0.14815,-0.12495 0,-0.13456 0.43114,-0.35871 0.76631,-0.39841 0.73117,-0.0866 0.54953,-0.271 -0.34844,-0.35377 -0.772,-0.0712 -1.1717,-0.0284 -1.37377,0.14681 -0.0787,0.0682 -0.17359,0.12406 -0.21094,0.12406 -0.0983,0 -1.52791,0.71277 -1.55321,0.7744 -0.0117,0.0285 -0.0474,0.0357 -0.0794,0.016 -0.0319,-0.0197 -0.0581,-0.009 -0.0581,0.0245 0,0.0332 -0.0643,0.0766 -0.14288,0.0964 -0.0786,0.0198 -0.20002,0.0804 -0.26987,0.13462 -0.0699,0.0542 -0.26686,0.18944 -0.4378,0.30044 -0.17094,0.11101 -0.37681,0.26784 -0.45749,0.34852 -0.0807,0.0807 -0.1855,0.14669 -0.23294,0.14669 -0.0474,0 -0.16839,0.0857 -0.26877,0.1905 -0.10038,0.10477 -0.2176,0.1905 -0.26049,0.1905 -0.11174,0 -0.30481,0.17514 -1.29496,1.17475 -0.89,0.8985 -1.5576,1.67062 -1.49693,1.73129 0.0458,0.0458 0.22625,-0.1116 0.22834,-0.19919 9.4e-4,-0.0394 0.10809,-0.13753 0.23812,-0.2181 0.13003,-0.0806 0.35396,-0.25203 0.49762,-0.381 0.47719,-0.42841 0.58085,-0.50688 0.73193,-0.55406 0.0824,-0.0257 0.20623,-0.0858 0.27512,-0.1335 0.0689,-0.0477 0.18312,-0.0867 0.25385,-0.0867 0.19885,0 1.32132,-0.38521 1.45024,-0.4977 0.25924,-0.2262 0.47169,0.18912 0.2509,0.49047 -0.1533,0.20924 -0.27049,0.54499 -0.27049,0.77496 0,0.0975 -0.0243,0.19232 -0.0541,0.2107 -0.0297,0.0184 -0.10596,0.16927 -0.16937,0.33529 -0.0634,0.16603 -0.13865,0.33127 -0.16721,0.3672 -0.0286,0.0359 -0.12454,0.15606 -0.21328,0.26696 -0.0888,0.11089 -0.19387,0.29663 -0.23361,0.41275 -0.0397,0.11612 -0.0969,0.22758 -0.12709,0.24769 -0.0302,0.0201 -0.0919,0.21803 -0.13708,0.43982 -0.058,0.28425 -0.12306,0.43034 -0.22052,0.49505 -0.0775,0.0515 -0.13826,0.15815 -0.13826,0.24281 0,0.0831 -0.0286,0.151 -0.0635,0.151 -0.0349,0 -0.0635,0.0843 -0.0635,0.18738 0,0.23892 -0.12581,0.84031 -0.19353,0.92509 -0.0284,0.0356 -0.10122,0.26419 -0.16175,0.508 -0.0605,0.2438 -0.12759,0.45757 -0.149,0.47503 -0.0214,0.0175 -0.0916,0.20229 -0.15594,0.41073 -0.0644,0.20843 -0.16022,0.44494 -0.21305,0.52556 -0.11964,0.18259 -0.0776,0.90631 0.0691,1.19096 0.054,0.10478 0.13433,0.44768 0.17848,0.762 0.0442,0.31433 0.0977,0.58579 0.11904,0.60325 0.0213,0.0175 0.0739,0.33991 0.11677,0.71654 0.0429,0.37663 0.0941,0.72668 0.11375,0.77788 0.0566,0.14757 0.20641,0.10825 0.25005,-0.0657 0.0282,-0.11224 0.083,-0.15875 0.18711,-0.15875 0.15188,0 0.41047,0.26541 0.41047,0.42132 0,0.0477 0.0286,0.0867 0.0635,0.0867 0.0349,0 0.0635,0.0298 0.0635,0.0662 0,0.0364 0.0822,0.24354 0.18267,0.46037 0.10047,0.21683 0.20433,0.46567 0.23081,0.55298 0.0265,0.0873 0.0675,0.17304 0.0911,0.1905 0.0236,0.0175 0.11886,0.24606 0.21167,0.508 0.28439,0.80266 0.33007,0.9196 0.37205,0.9525 0.0223,0.0175 0.0882,0.27464 0.14643,0.5715 0.0583,0.29686 0.12363,0.58261 0.14529,0.635 0.0216,0.0524 0.0894,0.36671 0.15046,0.6985 0.28382,1.54105 0.38644,2.00019 0.45708,2.0451 0.18946,0.12043 0.35311,0.0457 0.55042,-0.25123 z m -9.14023,-16.35125 c 0.0428,-0.18336 0.13141,-0.45325 0.19683,-0.59977 0.0654,-0.14651 0.11896,-0.29553 0.11896,-0.33114 0,-0.0356 0.0572,-0.0953 0.127,-0.13272 0.0699,-0.0374 0.127,-0.10427 0.127,-0.14864 0,-0.0444 0.0714,-0.17751 0.15875,-0.29586 0.0873,-0.11834 0.15965,-0.25963 0.16074,-0.31396 10e-4,-0.0543 0.0868,-0.26951 0.1905,-0.47817 0.10368,-0.20866 0.18851,-0.41583 0.18851,-0.46038 0,-0.0445 0.0234,-0.081 0.0519,-0.081 0.0285,0 0.10136,-0.15689 0.16181,-0.34865 0.0699,-0.22187 0.16074,-0.37508 0.24972,-0.42133 0.17939,-0.0933 0.53809,-0.47832 0.65355,-0.7016 0.0492,-0.0952 0.13432,-0.19818 0.18908,-0.22882 0.0882,-0.0493 0.0839,-0.0822 -0.0371,-0.2873 -0.28937,-0.49044 -0.3991,-1.34251 -0.246,-1.91018 0.0995,-0.3688 0.13417,-0.45577 0.39564,-0.99162 0.45111,-0.9245 0.60157,-1.79464 0.40216,-2.32581 -0.0619,-0.16488 -0.0969,-0.19015 -0.20658,-0.14893 -0.13878,0.0522 -0.66171,0.87206 -0.66171,1.03747 0,0.0529 -0.0244,0.11138 -0.0543,0.12985 -0.0448,0.0277 -0.21945,0.363 -0.51565,0.98992 -0.0247,0.0524 -0.11533,0.12984 -0.20129,0.17211 -0.086,0.0423 -0.3369,0.26496 -0.55766,0.49485 l -0.40138,0.41799 0.0417,0.36824 0.0417,0.36825 -0.24462,0.16952 c -0.2759,0.1912 -0.48024,0.4465 -0.69305,0.86589 -0.11867,0.23387 -0.14538,0.389 -0.1456,0.84569 -2.5e-4,0.48477 -0.0224,0.59892 -0.16643,0.85691 -0.15135,0.27109 -0.16233,0.33732 -0.12314,0.74247 0.0237,0.24466 0.0571,0.67257 0.0744,0.95091 0.0225,0.36432 0.0837,0.63079 0.21839,0.9513 0.10288,0.24487 0.18706,0.53694 0.18706,0.64905 0,0.11211 0.0286,0.22149 0.0635,0.24307 0.0349,0.0216 0.0635,0.0947 0.0635,0.1625 0,0.24339 0.11586,0.11673 0.19221,-0.21012 z m 3.93497,-0.53635 c 0.13707,-0.25838 0.37029,-0.58165 0.65165,-0.90324 0.0434,-0.0496 0.12178,-0.16959 0.17417,-0.26661 0.2379,-0.44059 1.46482,-1.57945 2.40052,-2.22823 0.27041,-0.18749 0.57861,-0.4187 1.09198,-0.81921 0.46288,-0.36111 0.86474,-0.58698 0.95029,-0.5341 0.0313,0.0193 0.0752,0.006 0.0974,-0.0303 0.0223,-0.036 0.13854,-0.10647 0.25839,-0.15655 0.11985,-0.0501 0.21791,-0.13089 0.21791,-0.17959 0,-0.0882 0.94597,-0.58542 1.42875,-0.75093 0.1397,-0.0479 0.27066,-0.10978 0.29104,-0.13754 0.0204,-0.0277 0.27754,-0.0957 0.5715,-0.15106 0.29395,-0.0553 0.58408,-0.12565 0.64472,-0.15625 0.0606,-0.0306 0.16066,-0.0565 0.22225,-0.0576 0.10643,-0.002 0.10647,-0.005 8.6e-4,-0.0667 -0.0611,-0.0356 -0.11112,-0.13475 -0.11112,-0.22032 0,-0.12888 0.0312,-0.1556 0.18169,-0.1556 0.15719,0 0.1778,-0.0204 0.15277,-0.1513 -0.0159,-0.0832 0.002,-0.17063 0.0406,-0.19425 0.0382,-0.0236 0.0695,-0.19405 0.0695,-0.37873 0,-0.24771 0.0343,-0.37528 0.13058,-0.48634 0.10926,-0.12598 0.14019,-0.13534 0.18953,-0.0573 0.0412,0.0652 0.0592,0.005 0.0599,-0.20162 6.6e-4,-0.20282 0.0307,-0.30624 0.0962,-0.33138 0.1515,-0.0581 0.11452,-0.3308 -0.0604,-0.44542 -0.22349,-0.14644 -0.46441,-0.41964 -0.57434,-0.6513 -0.14511,-0.30579 -0.0625,-0.54519 0.31954,-0.92607 0.49801,-0.49649 0.49501,-0.49495 1.04485,-0.53735 l 0.5086,-0.0392 v -0.33465 c 0,-0.39416 0.044,-0.53553 0.16658,-0.53553 0.0492,0 0.13537,-0.10715 0.19145,-0.23812 0.0561,-0.13097 0.12495,-0.28435 0.15302,-0.34085 0.0281,-0.0565 0.0817,-0.21645 0.11909,-0.35547 0.0498,-0.18511 0.16586,-0.33781 0.43357,-0.57066 0.20103,-0.17485 0.4297,-0.33828 0.50815,-0.36318 0.0785,-0.0249 0.14264,-0.0663 0.14264,-0.0919 0,-0.0257 0.14074,-0.0973 0.31275,-0.15914 0.30403,-0.10933 0.31179,-0.11844 0.27802,-0.3265 -0.0697,-0.42947 0.0273,-0.65879 0.44565,-1.05394 0.21579,-0.20381 0.42739,-0.37126 0.47025,-0.37212 0.0429,-8.6e-4 0.12632,-0.0801 0.18549,-0.17619 0.0592,-0.096 0.17468,-0.24607 0.25668,-0.33338 0.082,-0.0873 0.228089,-0.26207 0.324659,-0.38834 0.1447,-0.18923 0.46558,-0.48707 0.87463,-0.81183 0.0376,-0.0299 0.12582,-0.0725 0.19603,-0.0948 0.19306,-0.0613 0.24667,-0.36649 0.2228,-1.26843 l -0.0216,-0.81716 -0.18516,-0.0699 c -0.10184,-0.0384 -0.18516,-0.0922 -0.18516,-0.11947 0,-0.0273 -0.0571,-0.0496 -0.127,-0.0496 -0.1519,0 -0.15083,0.009 -0.0323,-0.2746 0.1012,-0.24221 0.0932,-0.25722 -0.17128,-0.32038 -0.13652,-0.0326 -0.18095,-0.0896 -0.21612,-0.27706 -0.0243,-0.12981 -0.0828,-0.2745 -0.12978,-0.32152 -0.047,-0.047 -0.0855,-0.1219 -0.0855,-0.16638 0,-0.0445 -0.0573,-0.1327 -0.12727,-0.19605 -0.07,-0.0633 -0.15916,-0.23208 -0.19814,-0.37497 -0.0644,-0.23616 -0.0758,-0.24679 -0.12468,-0.11691 -0.0663,0.17613 -0.131779,0.17984 -0.280159,0.0159 -0.0632,-0.0699 -0.15097,-0.127 -0.19501,-0.127 -0.044,0 -0.16961,-0.11305 -0.27904,-0.25122 -0.22712,-0.28676 -0.18635,-0.29247 -0.97297,0.13626 -0.23705,0.1292 -0.49423,0.25472 -0.5715,0.27892 -0.0773,0.0242 -0.20851,0.0971 -0.29165,0.16206 -0.0831,0.0649 -0.263,0.14816 -0.3997,0.18497 -0.17922,0.0483 -0.26684,0.11473 -0.3142,0.23834 -0.0555,0.14496 -0.3689,0.77763 -0.83018,1.67606 -0.0593,0.11542 -0.13119,0.23843 -0.15985,0.27336 -0.0287,0.0349 -0.1659,0.2921 -0.305,0.5715 -0.1391,0.2794 -0.27174,0.52237 -0.29477,0.53993 -0.023,0.0176 -0.093,0.16044 -0.15542,0.3175 -0.0625,0.15706 -0.15073,0.32328 -0.19616,0.36938 -0.0454,0.0461 -0.10004,0.15326 -0.12134,0.23813 -0.0213,0.0849 -0.0618,0.15431 -0.0901,0.15431 -0.0282,0 -0.10048,0.12858 -0.1605,0.28575 -0.06,0.15716 -0.12948,0.28575 -0.15437,0.28575 -0.0249,0 -0.0936,0.10715 -0.15264,0.23812 -0.13696,0.30365 -0.33248,0.66283 -0.40893,0.75124 -0.0326,0.0377 -0.18418,0.29046 -0.33676,0.5616 -0.15258,0.27114 -0.33975,0.59745 -0.41593,0.72513 -0.0762,0.12769 -0.18732,0.31788 -0.24699,0.42266 -0.0597,0.10477 -0.1276,0.20478 -0.15097,0.22225 -0.0234,0.0175 -0.15326,0.23177 -0.28862,0.47625 -0.13537,0.24447 -0.28294,0.48149 -0.32794,0.52671 -0.045,0.0452 -0.11569,0.19523 -0.15707,0.33337 -0.0414,0.13814 -0.0993,0.25117 -0.1287,0.25117 -0.0294,0 -0.0535,0.0389 -0.0535,0.0864 0,0.0475 -0.0685,0.18727 -0.15214,0.31057 -0.0837,0.1233 -0.18942,0.32731 -0.235,0.45336 -0.0456,0.12605 -0.10307,0.22918 -0.12775,0.22918 -0.0247,0 -0.0815,0.14287 -0.12625,0.3175 -0.0448,0.17462 -0.1003,0.3175 -0.12344,0.3175 -0.0231,0 -0.0937,0.19288 -0.15689,0.42862 -0.0631,0.23575 -0.1338,0.44292 -0.157,0.46038 -0.0232,0.0175 -0.0808,0.17462 -0.12794,0.34925 -0.0472,0.17462 -0.12116,0.37465 -0.16444,0.4445 -0.0433,0.0699 -0.11425,0.24844 -0.15772,0.39687 -0.0435,0.14844 -0.10087,0.26988 -0.12756,0.26988 -0.0267,0 -0.083,0.10716 -0.12522,0.23812 -0.0422,0.13097 -0.10131,0.26933 -0.13138,0.30747 -0.0301,0.0381 -0.0359,0.0881 -0.0129,0.11113 0.023,0.023 0.0115,0.0418 -0.0254,0.0418 -0.037,0 -0.0867,0.0777 -0.11051,0.17257 -0.0238,0.0949 -0.11079,0.31637 -0.19326,0.49213 -0.0825,0.17575 -0.17073,0.40431 -0.19615,0.50791 -0.0491,0.20015 -0.0598,0.21751 -0.30949,0.50353 -0.0883,0.10115 -0.16055,0.21842 -0.16055,0.26061 0,0.0422 -0.0671,0.14912 -0.14915,0.23763 -0.0865,0.0934 -0.16523,0.27724 -0.18745,0.4379 -0.0211,0.15233 -0.16203,0.50557 -0.31326,0.78497 -0.29114,0.5379 -0.35639,0.62931 -0.81295,1.13895 -0.15843,0.17685 -0.37166,0.44612 -0.47384,0.59838 -0.10218,0.15226 -0.33688,0.43537 -0.52157,0.62912 -0.18468,0.19375 -0.33578,0.37379 -0.33578,0.40008 0,0.0263 -0.12055,0.20031 -0.26787,0.38669 -0.21864,0.2766 -0.55619,1.01085 -0.55736,1.2124 -7.4e-4,0.12825 0.1111,0.0176 0.2534,-0.2506 z m 6.98532,0.0162 c 0,-0.0154 -0.0286,-0.0457 -0.0635,-0.0673 -0.0349,-0.0216 -0.0635,-0.009 -0.0635,0.028 0,0.037 0.0286,0.0673 0.0635,0.0673 0.0349,0 0.0635,-0.0126 0.0635,-0.028 z m 3.2385,-9.30393 c 0,-0.0731 -0.32529,-0.38357 -0.40186,-0.38357 -0.0297,0 0.0415,0.0974 0.1581,0.21651 0.2429,0.24806 0.24376,0.24865 0.24376,0.16706 z m 41.063578,-0.38696 c 0.16867,-0.0806 0.32096,-0.16365 0.33842,-0.18448 0.0175,-0.0208 0.16034,-0.0937 0.3175,-0.16201 0.15717,-0.0683 0.32177,-0.1586 0.36579,-0.20075 0.044,-0.0421 0.17976,-0.11269 0.30163,-0.15676 0.12187,-0.0441 0.22158,-0.10296 0.22158,-0.13087 0,-0.0279 0.0579,-0.0507 0.12858,-0.0507 0.1995,0 0.26624,-0.27466 0.23143,-0.9525 -0.0496,-0.96663 -0.21723,-1.64396 -0.45578,-1.84193 -0.321,-0.2664 -0.30327,-0.63457 0.0306,-0.63457 0.19199,0 0.3481,-0.10924 0.9933,-0.69512 0.21358,-0.19394 0.51362,-0.44105 0.66675,-0.54914 0.15313,-0.10807 0.31747,-0.27952 0.3652,-0.381 0.0477,-0.10146 0.11202,-0.2341 0.14288,-0.29475 0.0308,-0.0606 0.0561,-0.19469 0.0561,-0.29788 0,-0.10318 0.0269,-0.20425 0.0598,-0.22459 0.0985,-0.0609 0.15439,-0.59567 0.0726,-0.69425 -0.0441,-0.0532 -0.0571,-0.18488 -0.0331,-0.3351 0.0372,-0.2327 0.0222,-0.26355 -0.2507,-0.5151 -0.15965,-0.14716 -0.31949,-0.26757 -0.3552,-0.26757 -0.0357,0 -0.0649,-0.0822 -0.0649,-0.18256 0,-0.15367 0.0314,-0.18884 0.19844,-0.22225 0.10914,-0.0218 0.26472,-0.0397 0.34573,-0.0397 0.15542,0 0.78933,-0.58636 0.78933,-0.73013 0,-0.0428 0.21431,-0.31063 0.47625,-0.59509 0.26194,-0.28446 0.47625,-0.54372 0.47625,-0.57613 0,-0.0324 0.17233,-0.22508 0.38296,-0.42816 0.28032,-0.27027 0.40626,-0.4474 0.46986,-0.66086 0.0968,-0.32475 0.30634,-0.76065 0.4933,-1.02601 0.0677,-0.096 0.0996,-0.17506 0.0711,-0.17559 -0.0286,-5.1e-4 -0.0201,-0.022 0.0189,-0.0476 0.039,-0.0257 0.13509,-0.17524 0.21362,-0.33241 0.0785,-0.15716 0.21096,-0.37671 0.29428,-0.48789 0.0833,-0.11117 0.1515,-0.23261 0.1515,-0.26987 0,-0.0373 0.0266,-0.0677 0.0592,-0.0677 0.0326,0 0.079,-0.0643 0.10326,-0.14288 0.0242,-0.0786 0.12616,-0.25566 0.22653,-0.3935 0.10037,-0.13785 0.18249,-0.287873 0.18249,-0.33338 0,-0.04551 0.0231,-0.08274 0.0513,-0.08274 0.0711,0 0.45672,-0.556226 0.45672,-0.658729 0,-0.04593 0.0714,-0.166543 0.15868,-0.268019 0.0873,-0.101476 0.1587,-0.221377 0.15875,-0.266448 4e-5,-0.04507 0.0534,-0.15937 0.11862,-0.254 0.0652,-0.09463 0.20828,-0.314929 0.31795,-0.489554 0.10967,-0.174625 0.22801,-0.360362 0.26297,-0.41275 0.035,-0.05239 0.16312,-0.252412 0.28478,-0.4445 0.77656,-1.226129 1.47031,-1.9685 1.83959,-1.9685 0.29989,0 0.54059,-0.134152 0.54117,-0.301625 0,-0.07858 0.0291,-0.142875 0.064,-0.142875 0.0349,0 0.0635,-0.05289 0.0635,-0.117542 0,-0.06465 0.0714,-0.251898 0.15875,-0.41611 0.0873,-0.164212 0.15875,-0.339918 0.15875,-0.390457 0,-0.05054 0.0251,-0.09189 0.0558,-0.09189 0.0307,0 0.0887,-0.07951 0.12898,-0.176683 0.0403,-0.09718 0.14373,-0.258782 0.22995,-0.359126 0.0862,-0.100344 0.15677,-0.205102 0.15677,-0.232796 0,-0.02769 0.0754,-0.130405 0.16745,-0.228248 0.0921,-0.09784 0.21571,-0.255873 0.27471,-0.351178 0.27825,-0.449458 1.24449,-1.525161 2.30064,-2.561271 1.11197,-1.090875 2.45374,-2.253788 2.763,-2.394698 0.0801,-0.03651 0.1457,-0.08691 0.1457,-0.111988 0,-0.02508 0.0857,-0.08111 0.1905,-0.124512 0.10478,-0.0434 0.1905,-0.100104 0.1905,-0.126011 0,-0.02591 0.16431,-0.09864 0.36513,-0.161637 0.36454,-0.114353 0.81602,-0.329686 0.97797,-0.46645 0.0471,-0.03978 0.28568,-0.231251 0.53015,-0.425489 0.24448,-0.194239 0.52602,-0.422631 0.62566,-0.507537 0.0996,-0.08491 0.24965,-0.154376 0.33337,-0.154376 0.0837,0 0.15222,-0.03026 0.15222,-0.06725 0,-0.03699 0.0286,-0.04959 0.0635,-0.028 0.0349,0.02159 0.0635,0.009 0.0635,-0.028 0,-0.03699 0.0375,-0.06725 0.0833,-0.06725 0.0458,0 0.14012,-0.05001 0.20958,-0.111125 0.0695,-0.06112 0.37231,-0.238831 0.67298,-0.394916 0.48622,-0.252403 0.53408,-0.292616 0.43278,-0.363572 -0.0626,-0.04388 -0.13273,-0.187635 -0.15574,-0.319458 -0.0837,-0.479523 -0.31524,-1.097946 -0.69186,-1.848025 -0.16819,-0.334973 -0.29159,-0.471581 -0.74152,-0.82088 -0.29686,-0.230469 -0.70862,-0.587939 -0.91501,-0.794379 -0.4456,-0.445685 -1.15334,-0.902406 -1.87899,-1.212545 -0.33887,-0.14483 -0.98319,-0.196312 -1.22514,-0.09789 -0.25619,0.104211 -0.77941,0.440536 -1.02911,0.661503 -0.10477,0.09272 -0.2886,0.244736 -0.40851,0.337811 -0.64326,0.499306 -1.08054,0.925862 -1.50796,1.470976 -0.33608,0.428606 -0.97217,1.05646 -1.26415,1.247773 -0.0926,0.06067 -0.2829,0.220372 -0.42292,0.3549 -0.14002,0.134528 -0.36089,0.298832 -0.49082,0.365121 -0.12994,0.06629 -0.3694,0.222154 -0.53212,0.346366 -0.16273,0.124213 -0.31905,0.22584 -0.34739,0.22584 -0.0283,0 -0.17178,0.102942 -0.31877,0.22876 -0.14699,0.125818 -0.48079,0.368156 -0.74178,0.538531 -0.53701,0.350565 -1.04583,0.796689 -1.04583,0.916969 0,0.115583 -1.07024,0.973891 -1.34605,1.079501 -0.067,0.02565 -0.13693,0.171396 -0.18474,0.38501 -0.0423,0.189051 -0.0978,0.343729 -0.12343,0.343729 -0.0256,0 -0.0658,0.07858 -0.0895,0.174625 -0.0555,0.225575 -0.41888,0.965746 -0.54264,1.105218 -0.13259,0.14944 -1.33318,2.305814 -1.33318,2.394535 0,0.03967 -0.0267,0.07212 -0.0592,0.07212 -0.0326,0 -0.0783,0.06429 -0.1016,0.142875 -0.048,0.161802 -0.31025,0.579884 -0.49785,0.793662 -0.076,0.08658 -0.13152,0.253075 -0.14112,0.422982 -0.0143,0.25325 0,0.284107 0.14617,0.320853 0.15255,0.03829 0.15964,0.05785 0.12157,0.335572 -0.0222,0.162204 -0.0656,0.310754 -0.0964,0.330111 -0.0308,0.01936 -0.0923,0.156639 -0.13656,0.30507 -0.0443,0.148432 -0.10631,0.269875 -0.13777,0.269875 -0.0315,0 -0.041,0.02613 -0.0213,0.05808 0.0197,0.03194 0.0143,0.06766 -0.0121,0.07937 -0.0962,0.04269 -0.33377,0.432067 -0.33377,0.547165 0,0.202018 -0.20125,0.720497 -0.29339,0.755855 -0.0482,0.01849 -0.0876,0.08887 -0.0876,0.156393 0,0.06753 -0.057,0.200202 -0.12669,0.294832 -0.0697,0.09463 -0.16217,0.322072 -0.20553,0.505428 -0.0434,0.183357 -0.0986,0.333375 -0.12275,0.333375 -0.0242,0 -0.0791,0.157163 -0.12208,0.34925 -0.043,0.192088 -0.0974,0.34925 -0.12092,0.34925 -0.0235,0 -0.0968,0.221457 -0.16291,0.492125 -0.0661,0.270669 -0.13815,0.506413 -0.16016,0.523875 -0.022,0.01746 -0.0765,0.188913 -0.12106,0.381 -0.0446,0.192088 -0.10196,0.377825 -0.12754,0.41275 -0.0256,0.03493 -0.0978,0.277813 -0.16058,0.53975 -0.0627,0.261943 -0.13762,0.519113 -0.16641,0.571503 -0.14038,0.25545 -0.49698,1.42225 -0.49812,1.62983 -6.3e-4,0.0757 -0.0222,0.14711 -0.0484,0.15875 -0.10599,0.0471 -0.3147,0.55182 -0.26235,0.63442 0.0791,0.12473 0.0677,0.39738 -0.0202,0.4853 -0.0419,0.0419 -0.049,0.0766 -0.0159,0.0772 0.0353,5.7e-4 0.034,0.0203 -0.003,0.0476 -0.0349,0.0257 -0.11333,0.14667 -0.17423,0.2689 -0.0609,0.12224 -0.1395,0.26512 -0.17466,0.3175 -0.0844,0.12571 -0.21409,0.46361 -0.20111,0.52388 0.006,0.0262 -0.0151,0.0476 -0.0462,0.0476 -0.031,0 -0.0746,0.0971 -0.0969,0.21581 -0.0223,0.11869 -0.10078,0.29246 -0.17448,0.38615 -0.0914,0.1162 -0.13045,0.24943 -0.12286,0.41919 0.006,0.13687 0.0134,0.29885 0.0161,0.35997 0.005,0.0999 -0.0611,0.3169 -0.20638,0.68263 -0.0277,0.0698 -0.0691,0.27776 -0.0919,0.46202 -0.0228,0.18427 -0.0816,0.37511 -0.13056,0.42409 -0.049,0.049 -0.0891,0.18943 -0.0891,0.3121 0,0.12268 -0.0261,0.23917 -0.058,0.25887 -0.0319,0.0197 -0.078,0.15713 -0.10257,0.30538 -0.0245,0.14824 -0.0627,0.29811 -0.0848,0.33304 -0.0221,0.0349 -0.0739,0.36126 -0.11513,0.72518 -0.0541,0.47812 -0.10263,0.67718 -0.17474,0.71753 -0.0591,0.0331 -0.0998,0.14082 -0.0998,0.26435 0,0.25501 -0.12839,0.93626 -0.19288,1.02344 -0.0258,0.0349 -0.0841,0.23495 -0.1295,0.4445 -0.0454,0.20955 -0.0993,0.39529 -0.11992,0.41275 -0.0206,0.0175 -0.0863,0.1904 -0.14609,0.38431 -0.0637,0.20665 -0.18733,0.42791 -0.29873,0.53464 -0.12893,0.12352 -0.17061,0.20551 -0.12959,0.25493 0.0333,0.0401 0.0962,0.33526 0.13987,0.65598 0.0437,0.32073 0.10168,0.58314 0.12888,0.58314 0.0272,0 0.0513,0.15002 0.0535,0.33337 0.003,0.25037 0.0176,0.29982 0.0585,0.19861 0.0299,-0.0741 0.19243,-0.20074 0.3611,-0.28137 z"
       id="path5060"
       style="fill:#000000;stroke-width:0.0635" />
  </g>
</svg>
