<?xml version="1.0" encoding="UTF-8" standalone="no"?>
<!-- Created with Inkscape (http://www.inkscape.org/) -->

<svg
   xmlns:svg="http://www.w3.org/2000/svg"
   xmlns="http://www.w3.org/2000/svg"
   version="1.0"
   width="259.39001"
   height="301.51999"
   id="svg3866">
  <defs
     id="defs3868" />
  <g
     transform="translate(-264.1632,-394.74697)"
     id="layer1">
    <path
       d="m 433.87749,684.08463 c -0.55,-0.1398 -2.2375,-0.5272 -3.75,-0.8608 -2.2342,-0.4927 -2.75,-1.1546 -2.75,-3.5284 0,-1.6071 -0.5055,-3.2344 -1.1233,-3.6162 -1.5782,-0.9754 -0.4871,-8.8483 2.0435,-14.7441 2.44,-5.6847 2.8071,-11.4793 1.1168,-17.6321 l -1.2231,-4.4524 -1.9675,2.4524 c -1.0821,1.3488 -5.0619,6.5716 -8.844,11.6061 -14.7416,19.6235 -15.5474,19.9544 -43.531,17.8783 -10.9843,-0.8149 -24.9214,-1.9889 -30.9714,-2.6088 -6.05,-0.6199 -24.95,-1.4188 -42,-1.7752 -25.9832,-0.5431 -31,-0.8805 -31,-2.0849 0,-3.5175 35.3516,-9.0882 57.3901,-9.0437 5.2854,0.0107 14.1099,0.6715 19.6099,1.4683 12.4299,1.8009 30.7466,1.8725 35.5962,0.1391 5.0127,-1.7917 11.4941,-7.235 13.0759,-10.9815 1.8712,-4.4321 1.3611,-19.969 -1.2525,-38.1453 -2.7177,-18.9008 -2.2931,-23.651 3.4669,-38.7897 7.4632,-19.6151 9.8089,-22.9959 31.0423,-44.7412 17.1481,-17.5614 19.2981,-20.1443 21.3212,-25.6141 1.2375,-3.3457 2.25,-7.6319 2.25,-9.5248 0,-2.1411 0.9739,-4.7431 2.5775,-6.8859 1.4176,-1.8943 3.4518,-5.1318 4.5203,-7.1943 1.9397,-3.7439 1.9394,-3.7568 -0.2156,-7.9808 -2.2575,-4.4252 -2.4784,-7.5308 -1.3704,-19.2692 0.5552,-5.8816 0.3224,-7.7839 -1.4572,-11.90691 -2.6162,-6.0609 -3.6293,-15.102 -2.1258,-18.9701 1.0045,-2.58429 1.4693,-2.82009 4.5674,-2.31729 6.5031,1.05529 8.5445,3.63959 13.0233,16.48739 0.6991,2.0053 4.3862,-0.3894 5.549,-3.6039 2.0369,-5.631 3.3424,-7.1196 8.0008,-9.1236 5.5912,-2.4053 9.9307,-2.6985 9.9307,-0.6709 0,4.2624 -4.4591,15.1077 -7.6753,18.6677 -3.4338,3.80081 -3.5004,4.02051 -1.9403,6.40161 1.298,1.9809 1.6156,5.2886 1.6156,16.8239 l 0,14.3582 4.6398,7.252 c 0,0 3.10478,5.1021 3.83623,7.8771 0.8657,3.28436 0.25647,9.5499 0.25647,9.5499 -0.3009,5.5962 -1.1183,12.2606 -1.8164,14.8098 -1.3086,4.7782 -0.8323,12.492 2.2038,35.689 1.4416,11.0141 0.2213,17.9842 -3.9263,22.4261 -2.5943,2.7784 -6.05737,5.04593 -7.7887,2.0752 -1.3596,-2.33289 -1.86395,-15.14209 -1.4016,2.1866 1.3512,4.826 3.2459,6.4882 7.3958,6.4882 2.9227,0 4.6009,2.4974 4.6009,6.847 0,1.725 1.4729,5.215 3.5,8.2929 1.925,2.923 3.5,5.887 3.5,6.5868 0,0.6997 1.2328,3.4804 2.7397,6.1792 2.6924,4.8224 2.7072,4.9428 0.8596,6.9844 -2.2381,2.4731 -4.314,2.1735 -13.3086,-1.9207 l -6.2092,-2.8264 -3.0221,3.4419 c -3.6673,4.1769 -5.9479,8.4405 -7.7103,14.4149 1.5375,6.2393 -0.0664,13.0257 0.5257,7.8489 0.3019,8.0756 -7.4833,16.1511 -15.5703,16.1511 -4.7005,0 -5.9403,-0.8762 -11.8829,-8.3972 l -3.0785,-3.896 0.4174,8.8966 c 0.2296,4.8931 0.7453,10.2466 1.146,11.8966 l 0.7286,3 16.1635,-0.3789 c 9.1927,-0.2155 20.3766,0.1451 25.9325,0.8361 13.2967,1.6537 14.4718,1.933 14.0094,3.3297 -0.3876,1.1707 -2.8872,1.502 -25.2405,3.3454 l -9,0.7422 7,0.7341 c 3.85,0.4038 9.25,1.2027 12,1.7754 2.75,0.5727 7.4478,1.2719 10.4396,1.5539 6.0265,0.5681 8.53,2.1858 7.0604,4.5621 -0.7944,1.2846 -5.9951,1.5132 -36.2138,1.5917 -19.4074,0.0505 -35.7362,-0.0227 -36.2862,-0.1625 z"
       id="path3486"
       style="fill:#000000" />
  </g>
</svg>
