<?xml version="1.0" encoding="UTF-8" standalone="no"?>
<!-- Created with Inkscape (http://www.inkscape.org/) -->

<svg
   xmlns:svg="http://www.w3.org/2000/svg"
   xmlns="http://www.w3.org/2000/svg"
   version="1.1"
   width="365.22998"
   height="475.7561"
   id="svg22406">
  <defs
     id="defs22408" />
  <g
     transform="translate(-148.55578,-233.06416)"
     id="layer1">
    <path
       d="m 224.5,0.09375 c 7.76105,11.436204 14.77512,21.94106 20.9375,32.125 C 239.40749,21.38026 232.40667,10.548389 224.5,0.09375 z m 21.34375,32.8125 c 17.53914,31.745173 26.77117,63.610601 26.21875,87.0625 -5.48345,-2.6319 -11.3648,-3.52697 -18.75,2.28125 -3.35359,0.63816 -4.78378,2.35118 -3.5,5.5625 -5.51255,-7.97804 -31.04606,12.50967 -33.6875,17.03125 -1.99371,3.4128 -11.24202,7.22921 -29.71875,23.21875 -13.79933,11.94181 -32.54402,25.96302 -35.46875,34.21875 -10.42353,12.32237 -143.04767,153.45241 -150.5625,198.5 -2.16241,12.96256 9.5882,19.22149 35.53125,-1.21875 l 7.4375,-6.25 c 15.631489,0.43782 28.535256,-5.06319 39.4375,-13.53125 9.07288,2.70951 22.69516,5.53125 35.625,8.34375 -10.70517,25.29265 -21.596171,46.95481 -17.15625,48.53125 -1.601408,6.962 32.54961,0.67729 57.1875,-2.09375 l -2.375,8.78125 1.25,0.0937 -1.3125,7.125 1.1875,-0.28125 -2.65625,9.90625 1.46875,0 -2.5625,6.15625 1.9375,0.125 -1.84375,4.625 -3.0625,4.5 5.1875,-5.375 c -3.58415,6.87285 3.52386,7.4313 2.21875,0.40625 l 1.84375,4.46875 -1.5,-7.96875 1.90625,-0.75 -1.4375,-6.125 1.3125,-0.0937 -1.09375,-9.09375 1.71875,-1.1875 -1.25,-5.15625 1.625,-0.5 0.3125,-10 c 0.0403,-0.004 0.0848,0.004 0.125,0 l 0.875,-3.8125 -54.59375,7.28125 c 2.15534,-6.30925 4.37187,-12.37607 6.625,-18.34375 l 2.125,-0.84375 c -5.58036,4.36501 1.27437,7.15627 2.0625,1.0625 l 0.5,4.21875 0.875,-6.90625 2.125,0 0.40625,-5.40625 1.28125,0.34375 1.625,-7.6875 2.03125,-0.40625 0.3125,-4.5625 1.78125,0.125 3.25,-7.9375 c 0.0407,0.01 0.0844,0.0215 0.125,0.0313 l 1.96875,-2.8125 -7.96875,-1.71875 c 6.71723,-17.74727 13.19223,-36.43891 18.46875,-59.21875 l -0.4375,-22.75 c 1.17452,-1.56636 2.35576,-3.11529 3.53125,-4.75 5.46649,-9.85429 5.1536,-17.75207 3.84375,-25.3125 1.66569,0.41556 3.17382,0.6121 4.5625,0.625 l 11.625,21.25 -0.125,0.375 0.59375,0.46875 0.125,0.21875 0.0313,-0.0937 60.40625,46.84375 -11.8125,26.875 1.15625,2.15625 -0.1875,1.3125 1.15625,0.46875 1.4375,2.65625 -0.53125,-2.28125 9.75,3.90625 1.09375,-1.3125 4.25,3.21875 1.78125,-1.09375 7.875,4.65625 0.59375,-1.15625 5.0625,3.78125 1.46875,-1.4375 6.6875,4.5625 -3.34375,-3.5 c 5.90951,4.01652 8.20241,-2.70975 0.46875,-2.1875 l 7.03125,-2.59375 -5.375,1 -4.9375,-0.15625 0.625,-1.84375 -6.65625,-0.125 0.59375,-1.3125 -10.15625,-1.5625 0.78125,-0.96875 -7.09375,-1.6875 0.4375,-1.15625 L 220.28125,373 235.0625,338.75 172.125,289.4375 l -0.3125,-15.5625 14.625,-20.1875 c 4.48751,0.0808 9.49587,-0.30457 14.59375,-1.3125 4.17317,0.84909 8.28118,1.36849 12.34375,1.59375 l -1.53125,20.3125 5,3.84375 0.0937,-1.9375 8.75,0.0625 0.5,-1.4375 4.5625,1.28125 1.15625,-1.46875 8.0625,1.28125 0.125,-1.15625 5.4375,1.5 0.75,-1.6875 7.0625,1.59375 -3.9375,-1.78125 c 6.23309,1.4088 5.98457,-4.96587 -0.28125,-2 l 4.96875,-4.4375 -4.125,2.59375 -4.1875,1.46875 -0.0625,-1.75 -5.59375,2.09375 0.0625,-1.3125 -8.9375,2.03125 0.3125,-1.0625 -6.4375,0.9375 -0.0313,-1.125 -8,1.84375 1.0625,-19.5625 c 15.28267,0.0313 29.56994,-3.77127 42,-8.5 l 7.28125,2.46875 -5.125,-3.3125 c 0.0618,-0.0244 0.12585,-0.038 0.1875,-0.0625 l 7.71875,1.625 -3.96875,-3.15625 c 0.33612,-0.14137 0.66715,-0.2955 1,-0.4375 l 7.03125,1.875 -3.125,-3.5625 c 0.1074,-0.0481 0.20549,-0.10814 0.3125,-0.15625 l 7,3.0625 -3.75,-4.5625 c 0.14158,-0.0658 0.29669,-0.12186 0.4375,-0.1875 l 4.71875,1.9375 -1.71875,-3.34375 c 0.18393,-0.0877 0.38006,-0.16272 0.5625,-0.25 l 4.46875,1.8125 -2.21875,-2.90625 c 0.24298,-0.11749 0.44746,-0.19617 0.6875,-0.3125 l 4.6875,1.875 -3.09375,-2.65625 c 0.19411,-0.0943 0.37049,-0.18792 0.5625,-0.28125 L 289.90625,237.25 287,233.5 c 3.50612,-1.68964 6.75669,-3.19176 9.375,-4.1875 0.56378,0.85612 1.17553,1.46887 1.84375,1.875 l -5.0625,7.40625 0.96875,-0.0313 -2.46875,1.6875 0.90625,1.03125 -3.5,3.0625 1.75,0.875 -2.96875,1.46875 1.0625,2.375 -3.21875,1 2.125,0.96875 -4.625,2.03125 2,1.34375 -7.96875,2.90625 4.375,0.78125 -4.40625,1.28125 2.34375,0.96875 -3.25,0.75 1.28125,1.15625 -5.625,1.09375 3.25,0.21875 -7.15625,1.53125 3.78125,0.90625 -9.6875,2.75 c 6.0564,-0.13353 15.39628,0.79385 19.28125,-1.59375 8.61721,-5.29592 20.20379,-19.81455 26.59375,-37.5 6.10968,-9.30058 0.98781,-11.93838 -4,-14.6875 -7.94913,-1.43547 -20.0917,-0.31654 -33.71875,2.125 9.06646,-4.67243 17.10893,-10.44916 24.15625,-16.375 l 7.65625,-0.0625 -5.90625,-1.4375 c 0.0505,-0.0436 0.10587,-0.0814 0.15625,-0.125 l 7.78125,-1 -4.78125,-1.6875 c 0.28044,-0.25275 0.56683,-0.49778 0.84375,-0.75 l 7.25,-0.53125 -4.15625,-2.34375 c 0.0925,-0.0873 0.18921,-0.16286 0.28125,-0.25 l 7.59375,0.59375 -5.03125,-3.03125 c 0.11491,-0.11146 0.22957,-0.23267 0.34375,-0.34375 l 5.0625,0.25 -2.71875,-2.5625 c 0.14507,-0.1436 0.2937,-0.2948 0.4375,-0.4375 l 4.84375,0.25 -3.0625,-2 c 0.20097,-0.20111 0.36418,-0.36368 0.5625,-0.5625 l 5.03125,0.25 -3.8125,-1.46875 c 0.16049,-0.16125 0.3101,-0.30932 0.46875,-0.46875 l 6.46875,0.0625 -3.9375,-2.5625 c 2.75424,-2.74901 5.29306,-5.26071 7.4375,-7.0625 1.65307,1.2647 3.1815,1.45288 4.65625,1.0625 l 0.78125,6.96875 0.71875,-0.65625 -0.78125,2.875 1.34375,0.21875 -0.625,4.59375 1.875,-0.46875 -1.28125,3.03125 2.375,1.09375 L 330.5,195 l 2.25,-0.59375 -2.1875,4.53125 2.40625,-0.28125 -4.125,7.40625 3.8125,-2.28125 -2.5,3.84375 2.40625,-0.78125 -1.96875,2.6875 1.71875,0.0313 -3.53125,4.53125 2.59375,-1.96875 -4.4375,5.84375 3.46875,-1.78125 -5.53125,8.375 c 4.49961,-4.05602 12.14808,-9.43608 13.53125,-13.78125 2.94214,-9.24267 2.46179,-26.71542 -3.5,-43.625 1.08139,-8.1562 -4.10076,-8.91666 -9.1875,-9.78125 -27.29409,4.31296 -90.90303,52.92298 -105.75,64.0625 L 220,220.65625 c 4.93901,-34.54354 18.15526,-44.8884 22.3125,-65.78125 9.70915,-7.60532 5.75561,-8.1612 7.375,-11.59375 4.03221,5.32623 8.09228,16.7497 12.09375,15.46875 l 1.15625,4.0625 c 2.59554,3.62447 -0.94258,10.79122 10.8125,9.125 -6.85862,-1.36505 -7.54688,-2.75748 -7.15625,-4.15625 l 7.5625,0.78125 c 6.85014,-2.68513 7.67729,-12.6746 11.375,-19.1875 6.98653,-8.91803 10.55932,-17.19732 -1.21875,-22.5625 -0.17944,-0.0798 -0.35272,-0.16617 -0.53125,-0.25 10.02993,-18.91784 27.35683,-39.708673 49.6875,-58.5 -21.3296,16.63384 -37.95786,33.41791 -51.09375,57.78125 -2.76183,-1.4546 -5.47313,-3.25472 -8.21875,-4.78125 -1.51907,-35.412093 -11.77121,-60.684855 -28.3125,-88.15625 z M 365.125,45.0625 C 353.90462,52.047027 343.42124,59.719928 333.84375,67.75 343.31318,60.385689 353.68078,53.027986 365.125,45.0625 z M 189.3125,199.78125 c -0.61329,0.77238 -1.22742,1.53868 -1.84375,2.3125 0.67258,-0.9425 1.27075,-1.67013 1.84375,-2.3125 z m 13.0625,12.5625 c -0.95455,4.14849 -1.51059,7.89579 -1.5,11.09375 l -10.59375,14.875 c -2.84545,0.90587 -5.57849,1.81305 -7.34375,2.375 6.60881,-12.9491 13.20879,-21.49819 19.4375,-28.34375 z m 0.40625,18.75 c 0.75135,1.04666 1.73625,1.86423 3,2.40625 -2.28031,0.69311 -4.03386,1.23526 -6.09375,1.875 l 3.09375,-4.28125 z m -31.15625,20.1875 c 1.93547,0.799 4.71534,1.4713 8.09375,1.90625 l -8.0625,11.3125 -0.125,-5.8125 -1.03125,0.75 c 0.49162,-2.55715 0.84359,-5.29353 1.125,-8.15625 z M 134.59375,317.875 c 4.78312,15.65404 -4.76292,42.93423 -15,67.4375 L 85.0625,377.90625 c 13.726133,-11.46631 24.21385,-27.48796 32.96875,-41.625 5.51138,-5.75373 11.03937,-11.82352 16.5625,-18.40625 z M 125.75,389.75 c 1.36844,0.30788 2.71305,0.59971 4.03125,0.90625 l -4.96875,6.3125 1.21875,0.46875 -3.40625,5.34375 1.28125,0.15625 -5.59375,7.125 1.46875,0.46875 -3.25,3.03125 c 3.05971,-7.96225 6.16661,-15.82381 9.21875,-23.8125 z m -9.71875,25.125 1.25,0.53125 -2.34375,2.28125 c 0.35925,-0.94607 0.73319,-1.87103 1.09375,-2.8125 z"
       transform="translate(148.55578,233.06416)"
       id="path35864"
       style="fill:#000000;stroke:#000000;stroke-width:0.22248131px;stroke-linecap:butt;stroke-linejoin:miter;stroke-opacity:1" />
  </g>
</svg>
