<?xml version="1.0" encoding="UTF-8" standalone="no"?>
<!-- Created with Inkscape (http://www.inkscape.org/) -->

<svg
   xmlns:svg="http://www.w3.org/2000/svg"
   xmlns="http://www.w3.org/2000/svg"
   version="1.1"
   width="250"
   height="170.992"
   viewBox="0 0 250 170.992"
   id="Layer_1"
   xml:space="preserve"><defs
   id="defs11" />
<g
   id="g3">
	<path
   d="m 143.262,2.955 c -4.033,-4.519 9.135,1.8 15,0 -4.332,2.491 17.086,4.486 22,8 -0.15,2.487 -3.387,0.292 -4,0 0.271,4.804 4.43,1.131 8,3 0.48,0.251 -2.463,1.668 -3,1 1.994,2.479 11.572,5.589 16,10 -0.189,1.135 -1.002,0.555 -1,0 6.307,7.766 16.484,21.952 15,34 5.66,-3.474 1.506,12.485 7,16 -0.559,2.896 -1.559,-1.534 -3,-1 3.365,3.86 1.156,7.205 4,11 -0.293,2.039 -2.705,1.961 -3,4 3.129,2.006 -0.076,6.639 4,9 -0.227,1.44 -2.984,0.349 -3,2 7.873,8.594 16.428,9.22 17,18 1.131,17.37 -28.523,31.487 -56,27 -8.959,-1.463 -15.297,-6.304 -23,-7 -9.094,-0.822 -17.629,1.766 -25,-1 -0.75,-3.417 4.063,-1.271 3,-5 17.104,-5.663 32.082,4.221 46,7 25.195,5.03 64.629,-17.159 31,-31 -3.387,5.285 -9.125,-0.816 -10,5 -5.418,-6.468 -10.154,2.541 -16,-4 -2.994,0.658 0.957,2.138 0,4 -2.182,0.182 -3.182,-0.818 -3,-3 -1.172,0.161 -0.844,1.823 -1,3 -1.701,0.367 -1.887,-0.78 -2,-2 -1.625,-0.871 -2.174,3.74 -3,4 -1.383,0.436 -0.695,-3.006 -1,-3 -2.004,0.037 -10.225,7.849 -11,1 -0.934,0.566 -1.514,2.78 -2,1 -1.484,0.437 0.395,1.279 0,3 -1.162,-0.163 -1.779,0.221 -2,1 -1.23,-0.437 -2.053,-1.279 -2,-3 -2.322,0.678 -3.445,2.554 -5,4 -2.17,2.392 0.123,-2.422 1,-3 -2.182,-0.182 -3.182,0.818 -3,3 -0.559,-3.359 -10.883,-3.539 -12,2 -1.666,0 -3.332,0 -5,0 0,-1 0,-2 0,-3 -0.16,-1.172 -1.823,-0.844 -3,-1 1.461,-5.873 9.102,-5.566 11,-11 -1.771,-2.631 -5.328,2.231 -4,-4 -1.342,0.202 -1.861,4.153 -2,0 -0.973,0.027 -0.775,1.224 -1,2 -1.484,-1.181 -4.468,-0.865 -4,-4 -2.621,4.319 -0.958,-1.499 -4,-2 -1.483,1.408 -2.15,3.192 -2,-1 -1.172,0.161 -0.844,1.823 -1,3 -5.038,-1.709 -10.835,-4.521 -13,0 -1.783,-1.551 -3.917,-2.749 -6,-4 -1.788,-0.296 -0.063,3.88 2,3 -0.674,2.766 -5.247,-2.784 -4,3 -1.701,0.367 -1.887,-0.78 -2,-2 -1.85,0.15 -0.614,3.387 -2,4 -2.483,0.15 -4.15,-0.517 -5,-2 -0.507,2.826 -5.672,0.994 -6,4 -1.781,-0.733 -0.144,-1.818 0,-3 -2.689,-0.688 -1.933,2.067 -3,3 -4.365,-4.724 -11.974,1.99 -17,3 2.645,-3.676 -2.294,-3.976 -3,-1 -1.357,-0.31 -0.83,-2.504 -1,-4 1.479,-1.158 2.521,-1.158 4,0 -3.042,-1.763 2.729,-3.097 0,-4 0.243,-1.408 4.977,0.929 4,-4 0.973,0.027 0.776,1.224 1,2 1.704,-5.262 -4.714,-0.939 -7,-2 0.111,-1.889 3.306,-0.694 3,-3 -2.588,1.837 -4.644,-6.848 -7,-7 -1.419,-0.092 -2.807,2.31 -4,-3 -0.973,0.027 -0.776,1.224 -1,2 -2.755,-1.395 0.03,-6.168 -7,-5 -1.289,-10.031 -13.659,-6.146 -17,-15 -1.172,0.161 -1.015,-1.016 -1.172,0.161 1.172,-0.161 -3.276,-1.172 -0.828,-0.161 -8.76,-3.396 -17.519,-8.823 -18,-23 8.636,-4.896 16.166,-12.625 24,-17 3.663,-2.046 7.809,-1.202 10,-2 6.479,-2.359 14.05,-7.907 21,-10 5.621,-1.693 13.986,-0.313 18,-5 8.425,4.272 13.365,2.897 25,0 9.067,-2.258 18.327,-5.841 30,-7 -1.807,3.13 0.306,0.515 3,2 z"
   id="path5"
   style="fill-rule:evenodd" />
	<path
   d="m 140.262,0.955 c -11.673,1.159 -20.933,4.742 -30,7 -11.635,2.897 -16.575,4.272 -25,0 -4.014,4.688 -12.379,3.307 -18,5 -6.95,2.093 -14.521,7.641 -21,10 -2.191,0.798 -6.337,-0.046 -10,2 -7.834,4.375 -15.364,12.104 -24,17 0.481,14.177 9.24,19.604 18,23 1.119,0.071 0.828,0.161 2,0 3.341,8.854 15.711,4.969 17,15 7.03,-1.168 4.245,3.605 7,5 0.224,-0.776 0.027,-1.973 1,-2 1.193,5.31 2.581,2.908 4,3 2.356,0.152 4.412,8.837 7,7 0.306,2.306 -2.889,1.111 -3,3 2.286,1.061 8.704,-3.262 7,2 -0.224,-0.776 -0.027,-1.973 -1,-2 0.977,4.929 -3.757,2.592 -4,4 2.729,0.903 -3.042,2.237 0,4 -1.479,-1.158 -2.521,-1.158 -4,0 0.17,1.496 -0.357,3.69 1,4 0.706,-2.976 5.645,-2.676 3,1 5.026,-1.01 12.635,-7.724 17,-3 1.067,-0.933 0.311,-3.688 3,-3 -0.144,1.182 -1.781,2.267 0,3 0.328,-3.006 5.493,-1.174 6,-4 0.85,1.483 2.517,2.15 5,2 1.386,-0.613 0.15,-3.85 2,-4 0.113,1.22 0.299,2.367 2,2 -1.247,-5.784 3.326,-0.234 4,-3 -2.063,0.88 -3.788,-3.296 -2,-3 2.083,1.251 4.217,2.449 6,4 2.165,-4.521 7.962,-1.709 13,0 0.156,-1.177 -0.172,-2.839 1,-3 -0.15,4.192 0.517,2.408 2,1 3.042,0.501 1.379,6.319 4,2 -0.468,3.135 2.516,2.819 4,4 0.225,-0.776 0.027,-1.973 1,-2 0.139,4.153 0.658,0.202 2,0 -1.328,6.231 2.229,1.369 4,4 -1.898,5.434 -9.539,5.127 -11,11 1.177,0.156 2.84,-0.172 3,1 0,1 0,2 0,3 1.668,0 3.334,0 5,0 1.117,-5.539 11.441,-5.359 12,-2 -0.182,-2.182 0.818,-3.182 3,-3 -0.877,0.578 -3.17,5.392 -1,3 1.555,-1.446 2.678,-3.322 5,-4 -0.053,1.721 0.77,2.563 2,3 0.221,-0.779 0.838,-1.163 2,-1 0.395,-1.721 -1.484,-2.563 0,-3 0.486,1.78 1.066,-0.434 2,-1 0.775,6.849 8.996,-0.963 11,-1 0.305,-0.006 -0.383,3.436 1,3 0.826,-0.26 1.375,-4.871 3,-4 0.113,1.22 0.299,2.367 2,2 0.156,-1.177 -0.172,-2.839 1,-3 -0.182,2.182 0.818,3.182 3,3 0.957,-1.862 -2.994,-3.342 0,-4 5.846,6.541 10.582,-2.468 16,4 0.875,-5.816 6.613,0.285 10,-5 33.629,13.841 -5.805,36.03 -31,31 -13.918,-2.779 -28.896,-12.663 -46,-7 1.063,3.729 -3.75,1.583 -3,5 7.371,2.766 15.906,0.178 25,1 7.703,0.696 14.041,5.537 23,7 27.477,4.487 57.131,-9.63 56,-27 -0.572,-8.78 -9.127,-9.406 -17,-18 0.016,-1.651 2.773,-0.56 3,-2 -4.076,-2.361 -0.871,-6.994 -4,-9 0.295,-2.039 2.707,-1.961 3,-4 -2.844,-3.795 -0.635,-7.14 -4,-11 1.441,-0.534 2.441,3.896 3,1 -5.494,-3.515 -1.34,-19.474 -7,-16 1.484,-12.048 -8.693,-26.234 -15,-34 -0.002,0.555 0.811,1.135 1,0 -4.428,-4.411 -14.006,-7.521 -16,-10 0.537,0.668 3.48,-0.749 3,-1 -3.57,-1.869 -7.729,1.804 -8,-3 0.613,0.292 3.85,2.487 4,0 -4.914,-3.514 -26.332,-5.509 -22,-8 -5.865,1.8 -19.033,-4.519 -15,0 -2.694,-1.485 -4.807,1.13 -3,-2 z"
   id="path7"
   style="fill-rule:evenodd" />
</g>
</svg>