<?xml version="1.0" encoding="UTF-8" standalone="no"?>
<!-- Created with Inkscape (http://www.inkscape.org/) -->

<svg
   xmlns:svg="http://www.w3.org/2000/svg"
   xmlns="http://www.w3.org/2000/svg"
   version="1.1"
   width="100%"
   height="100%"
   viewBox="0 0 327 210"
   id="svg2"
   xml:space="preserve"
   style="fill-rule:evenodd;stroke-linecap:round;stroke-linejoin:round;stroke-miterlimit:1.5"><defs
   id="defs9" />
    <g
   transform="translate(-140.191,-176.355)"
   id="rhinella-marinus">
        <path
   d="m 168.463,176.948 c -2.932,0.149 -5.595,4.337 -7.628,6.755 -2.792,3.322 -3.608,12.036 -2.771,13.621 0.868,1.642 1.732,-2.196 0,0 -1.732,2.195 0.882,3.233 -4.094,6.156 -2.36,1.386 -3.643,5.851 -5.863,10.088 -1.464,2.795 -7.591,9.927 0.353,12.628 2.018,0.687 -3.475,0.974 -2.905,3.3 0.388,1.587 2.691,2.32 3.772,3.269 1.981,1.741 3.022,3.179 3.018,4.679 -0.005,1.882 4.569,4.784 12.685,13.68 2.677,2.934 4.073,8.019 8.024,11.949 4.197,4.174 21.185,18.334 25.452,19.991 4.267,1.657 -6.223,11.58 -10.433,18.826 -4.538,7.81 -7.496,19.097 -6.763,23.594 0.643,3.939 -6.029,8.193 -11.479,10.542 -2.578,1.111 -13.028,3.527 -15.317,5.04 -2.181,1.442 -7.313,2.942 -8.879,2.369 -4.227,-1.547 -5.327,2.226 -4.836,3.336 1.199,2.711 -1.131,1.751 3.863,3.175 1.405,0.401 7.863,-0.373 9.283,-0.637 1.701,-0.316 3.412,-2.275 5.244,-2.9 2.076,-0.708 4.135,-0.511 6.369,-1.137 2.946,-0.825 6.869,-2.998 7.743,-3.057 3.044,-0.207 -6.361,5.475 -7.614,9.788 -0.595,2.047 -6.317,5.335 0.392,6.891 1.679,0.389 3.133,-3.008 4.066,-4.547 1.322,-2.178 5.508,-4.425 9.576,-5.155 6.941,-1.245 13.279,-5.641 15.371,-5.292 0.909,0.152 5.862,-0.598 10.771,1.127 6.387,2.245 12.324,4.984 14.423,5.719 1.09,0.381 5.35,0.512 4.381,-1.027 -0.491,-0.778 0.661,-3.32 -1.32,-3.427 -4.979,-0.268 -7.407,-4.561 -7.858,-5.927 -0.47,-1.425 1.19,-2.972 1.858,-3.82 1.226,-1.556 4.992,-0.38 8.764,-1.247 5.679,-1.306 5.589,-1.443 8.21,-2.208 0.717,-0.209 2.802,1.147 4.039,0.923 1.899,-0.343 2.52,-1.335 2.146,-2.649 -0.376,-1.319 -4.46,-2.906 -5.632,-2.904 -2.996,0.003 -4.336,2.43 -9.483,0.233 -2.967,-1.268 -4.11,-1.442 -5.373,-3.265 -1.712,-2.47 4.866,-10.94 10.676,-10.129 11.364,1.586 8.723,5.944 16.254,9.344 7.532,3.399 22.491,9.812 22.491,9.812 0,0 -11.231,6.048 -18.076,8.477 -6.846,2.428 -8.935,11.045 -12.133,12.417 -3.197,1.372 -11.971,-0.949 -14.413,-0.495 -8.105,1.509 -0.462,2.973 -2.753,5.451 -2.797,3.026 -10.011,5.333 -20.433,4.522 -3.083,-0.24 -5.793,2.307 -11.858,2.399 -8.259,0.125 -11.608,-0.086 -14.228,0.705 -4.393,1.327 -6.37,5.507 -0.922,6.608 1.174,0.238 3.825,-1.972 7.822,-2.225 5.656,-0.359 15.176,0.411 17.618,0.384 2.066,-0.023 3.685,3.413 -4.915,3.777 -4.446,0.188 -7.73,7.684 -7.73,7.684 0,0 6.073,2.409 7.815,-0.255 3.535,-5.404 10.994,-1.994 15.012,-4.022 1.818,-0.918 6.395,-4.034 11.83,-2.99 7.707,1.481 24.59,1.686 34.52,1.911 15.263,0.347 34.734,-1.798 42.23,-5.701 3.285,-1.71 18.313,-7.802 22.661,-8.197 0.888,-0.08 -1.504,0.561 -2.343,1.273 -0.46,0.391 -0.59,1.098 -0.324,1.333 1.639,1.451 2.449,-0.104 3.658,-0.344 1.341,-0.267 2.459,-1.263 2.604,-1.152 0.438,0.335 1.418,0.648 1.558,0.996 0.139,0.349 -0.458,0.954 -1.918,1.593 -1.343,0.586 -3.628,0.359 -5.953,0.863 -0.883,0.191 -1.795,1.153 -2.621,1.506 -1.211,0.517 -2.23,0.481 -2.64,0.988 -1.025,1.269 -1.153,1.98 -1.382,2.704 -0.44,1.393 1.675,2.663 2.533,2.703 2.868,0.134 1.087,-0.528 3.121,-1.875 0.715,-0.475 1.764,-1.753 3.415,-2.168 1.042,-0.262 6.396,-1.235 11.004,-1.54 2.021,-0.134 3.848,-1.27 4.986,-0.77 1.536,0.675 -0.707,0.294 -2.525,1.607 -2.692,1.944 -7.686,2.365 -9.642,2.483 -4.351,0.264 -6.358,4.692 -6.299,6.04 0.073,1.676 1.604,1.693 3.64,1.402 1.167,-0.167 0.956,-1.325 3.339,-2.654 1.473,-0.821 5.511,0.416 8.322,-0.471 2.784,-0.879 7.53,-2.205 12.063,-2.611 8.217,-0.737 15.093,-6.577 20.887,-6.492 5.233,0.077 15.264,-3.657 18.279,-2.386 4.181,1.764 -1.434,7.894 0.863,12.307 2.677,5.143 5.116,2.211 4.501,0.242 -0.944,-3.02 3.567,-6.704 3.843,-8.038 0.649,-3.137 3.062,-1.318 4.963,-3.349 1.365,-1.459 4.892,-3.082 9.326,-3.885 2.313,-0.418 4.398,1.831 6.414,1.377 5.471,-1.234 11.403,-3.08 13.936,-4.729 9.082,-5.913 16.299,-11.377 24.995,-24.552 7.841,-11.878 11.832,-25.653 12.039,-29.684 0.438,-8.502 0.743,-23.053 -9.864,-25.158 -10.608,-2.105 -29.992,7.244 -31.535,7.066 -1.543,-0.179 0.782,-5.129 1.465,-8.425 0.684,-3.296 -10.799,-15.695 -17.416,-18.059 -6.618,-2.364 -17.321,-13.258 -22.779,-19.368 -5.458,-6.111 -36.862,-24.898 -45.034,-28.151 -23.277,-9.267 -34.466,-7.408 -39.235,-9.531 -16.721,-7.442 -18.199,-2.654 -28.188,-5.555 -6.464,-1.877 -7.988,-3.213 -14.582,-4.057 -2.454,-0.314 -5.748,0.234 -10.111,-1.54 -8.684,-3.531 -18.075,-2.103 -20.85,-1.79 -4.42,0.497 -12.454,2.369 -17.588,0.419 -5.134,-1.95 -19.255,-4.888 -19.739,-8.062 -0.484,-3.175 -4.08,-9.387 -22.209,-8.463 z"
   id="path5"
   style="stroke:#000000;stroke-width:1px" />
    </g>
</svg>